<?xml version="1.0" encoding="UTF-8"?>
<svg version="1.1" xmlns="http://www.w3.org/2000/svg" width="945" height="945">
<path d="M0 0 C2.56473013 -0.00373994 5.12945913 -0.00834283 7.69418633 -0.01373065 C13.2552019 -0.02399102 18.8161827 -0.02688137 24.3772068 -0.02481842 C32.64740264 -0.02175803 40.91756023 -0.0301154 49.18774862 -0.04056767 C64.82224077 -0.05987612 80.45671977 -0.06553475 96.09122245 -0.06668179 C108.17068179 -0.0676022 120.25013599 -0.07172578 132.32959366 -0.07808304 C135.81143859 -0.07987824 139.29328354 -0.08165787 142.77512848 -0.08343279 C143.6408271 -0.08387489 144.50652572 -0.08431699 145.39845763 -0.08477248 C169.7390158 -0.09707559 194.07957218 -0.10497416 218.42013359 -0.10408592 C219.7957723 -0.10403919 219.7957723 -0.10403919 221.1992017 -0.10399151 C225.84698923 -0.1038253 230.49477675 -0.10362722 235.14256428 -0.10342209 C236.0655642 -0.1033822 236.98856412 -0.10334231 237.93953373 -0.10330121 C239.80606473 -0.10322034 241.67259573 -0.10313674 243.53912673 -0.10305043 C272.56297995 -0.10182561 301.58678639 -0.11682759 330.61062622 -0.14419556 C363.25048135 -0.17496086 395.89030575 -0.19212533 428.53017628 -0.19026911 C432.01516477 -0.19011986 435.50015326 -0.19002244 438.98514175 -0.18996048 C440.27219214 -0.18992552 440.27219214 -0.18992552 441.58524355 -0.18988985 C455.35429991 -0.18982847 469.12331546 -0.20256478 482.89235971 -0.21982501 C496.74805073 -0.23683374 510.60368245 -0.23871455 524.45937817 -0.22560637 C532.67507453 -0.21825164 540.89059 -0.22177016 549.10626695 -0.24149105 C555.26412921 -0.25501449 561.42180188 -0.247286 567.57965554 -0.2317446 C570.05340395 -0.22869172 572.52717232 -0.23224158 575.00089715 -0.24346475 C626.92132004 -0.463223 671.74268285 18.22540998 709.01394653 54.14242554 C733.84587868 79.62462105 750.21467259 112.45456981 756.82644653 147.26742554 C757.00019731 148.15430624 757.17394809 149.04118695 757.35296404 149.95494282 C759.40556148 162.06126823 759.11081296 174.19883829 759.09387207 186.440979 C759.09761201 189.00570914 759.1022149 191.57043813 759.10760272 194.13516533 C759.11786309 199.69618091 759.12075344 205.2571617 759.11869049 210.81818581 C759.1156301 219.08838165 759.12398747 227.35853924 759.13443974 235.62872762 C759.15374819 251.26321977 759.15940682 266.89769878 759.16055386 282.53220145 C759.16147427 294.61166079 759.16559785 306.691115 759.17195511 318.77057266 C759.17375031 322.2524176 759.17552994 325.73426254 759.17730486 329.21610749 C759.17796801 330.51465542 759.17796801 330.51465542 759.17864455 331.83943664 C759.19094766 356.1799948 759.19884623 380.52055118 759.19795799 404.86111259 C759.19792684 405.77820507 759.19789568 406.69529754 759.19786358 407.6401807 C759.19769737 412.28796823 759.19749929 416.93575576 759.19729416 421.58354329 C759.19723433 422.96804316 759.19723433 422.96804316 759.19717328 424.38051273 C759.19709241 426.24704374 759.19700881 428.11357474 759.1969225 429.98010574 C759.19569768 459.00395895 759.21069966 488.02776539 759.23806763 517.05160522 C759.26883293 549.69146035 759.2859974 582.33128475 759.28414118 614.97115529 C759.28399193 618.45614378 759.28389451 621.94113226 759.28383255 625.42612076 C759.28379759 626.71317115 759.28379759 626.71317115 759.28376192 628.02622255 C759.28370054 641.79527892 759.29643685 655.56429446 759.31369708 669.33333872 C759.33070581 683.18902973 759.33258662 697.04466146 759.31947844 710.90035717 C759.31212371 719.11605354 759.31564223 727.331569 759.33536312 735.54724595 C759.34888657 741.70510821 759.34115807 747.86278089 759.32561667 754.02063455 C759.32256379 756.49438295 759.32611365 758.96815133 759.33733682 761.44187616 C759.55709507 813.36229904 740.86846209 858.18366185 704.95144653 895.45492554 C679.46925102 920.28685769 646.63930226 936.65565159 611.82644653 943.26742554 C610.93956583 943.44117632 610.05268512 943.61492709 609.13892925 943.79394305 C597.03260384 945.84654049 584.89503378 945.55179196 572.65289307 945.53485107 C570.08816293 945.53859102 567.52343394 945.54319391 564.95870674 945.54858172 C559.39769116 945.55884209 553.83671037 945.56173244 548.27568626 945.55966949 C540.00549042 945.5566091 531.73533283 945.56496647 523.46514445 945.57541875 C507.8306523 945.5947272 492.19617329 945.60038582 476.56167062 945.60153286 C464.48221128 945.60245327 452.40275708 945.60657686 440.32329941 945.61293411 C436.84145447 945.61472932 433.35960953 945.61650894 429.87776458 945.61828387 C428.57921665 945.61894701 428.57921665 945.61894701 427.25443543 945.61962355 C402.91387727 945.63192666 378.57332089 945.63982524 354.23275948 945.638937 C352.85712076 945.63889026 352.85712076 945.63889026 351.45369137 945.63884258 C346.80590384 945.63867637 342.15811631 945.63847829 337.51032878 945.63827316 C336.58732887 945.63823327 335.66432895 945.63819338 334.71335934 945.63815228 C332.84682833 945.63807141 330.98029733 945.63798781 329.11376633 945.6379015 C300.08991312 945.63667668 271.06610668 945.65167866 242.04226685 945.67904663 C209.40241172 945.70981194 176.76258732 945.7269764 144.12271678 945.72512019 C140.63772829 945.72497094 137.15273981 945.72487352 133.66775131 945.72481155 C132.80971772 945.72478825 131.95168413 945.72476494 131.06764952 945.72474092 C117.29859315 945.72467954 103.52957761 945.73741586 89.76053335 945.75467608 C75.90484234 945.77168481 62.04921061 945.77356562 48.1935149 945.76045744 C39.97781853 945.75310272 31.76230307 945.75662123 23.54662612 945.77634212 C17.38876386 945.78986557 11.23109118 945.78213707 5.07323752 945.76659568 C2.59948912 945.7635428 0.12572074 945.76709265 -2.34800409 945.77831583 C-54.26842697 945.99807407 -99.08978978 927.30944109 -136.36105347 891.39242554 C-161.19298562 865.91023003 -177.56177952 833.08028126 -184.17355347 798.26742554 C-184.34730425 797.38054483 -184.52105502 796.49366413 -184.70007098 795.57990825 C-186.75266841 783.47358284 -186.45791989 771.33601279 -186.440979 759.09387207 C-186.44471895 756.52914194 -186.44932184 753.96441294 -186.45470965 751.39968574 C-186.46497002 745.83867017 -186.46786037 740.27768937 -186.46579742 734.71666527 C-186.46273703 726.44646943 -186.4710944 718.17631184 -186.48154668 709.90612345 C-186.50085513 694.2716313 -186.50651375 678.6371523 -186.50766079 663.00264962 C-186.5085812 650.92319029 -186.51270478 638.84373608 -186.51906204 626.76427841 C-186.52085725 623.28243348 -186.52263687 619.80058853 -186.5244118 616.31874359 C-186.52485389 615.45304497 -186.52529599 614.58734635 -186.52575148 613.69541444 C-186.53805459 589.35485627 -186.54595317 565.01429989 -186.54506493 540.67373848 C-186.54503377 539.756646 -186.54500261 538.83955353 -186.54497051 537.89467037 C-186.5448043 533.24688284 -186.54460622 528.59909532 -186.54440109 523.95130779 C-186.5443612 523.02830787 -186.54432131 522.10530795 -186.54428021 521.15433834 C-186.54419934 519.28780734 -186.54411574 517.42127634 -186.54402943 515.55474534 C-186.54280461 486.53089212 -186.55780659 457.50708568 -186.58517456 428.48324585 C-186.61593987 395.84339072 -186.63310433 363.20356632 -186.63124812 330.56369579 C-186.63109887 327.0787073 -186.63100145 323.59371881 -186.63093948 320.10873032 C-186.63091617 319.25069672 -186.63089287 318.39266313 -186.63086885 317.50862852 C-186.63080747 303.73957216 -186.64354379 289.97055661 -186.66080401 276.20151236 C-186.67781274 262.34582134 -186.67969355 248.49018962 -186.66658537 234.6344939 C-186.65923065 226.41879754 -186.66274916 218.20328207 -186.68247005 209.98760512 C-186.6959935 203.82974287 -186.688265 197.67207019 -186.67272361 191.51421653 C-186.66967072 189.04046812 -186.67322058 186.56669975 -186.68444376 184.09297492 C-186.904202 132.17255203 -168.21556902 87.35118922 -132.29855347 50.07992554 C-106.81635796 25.24799339 -73.98640919 8.87919948 -39.17355347 2.26742554 C-38.28667276 2.09367476 -37.39979206 1.91992398 -36.48603618 1.74090803 C-24.37971077 -0.31168941 -12.24214072 -0.01694089 0 0 Z " fill="#FEFEFE" transform="translate(186.17355346679688,-0.267425537109375)"/>
<path d="M0 0 C2.56473013 -0.00373994 5.12945913 -0.00834283 7.69418633 -0.01373065 C13.2552019 -0.02399102 18.8161827 -0.02688137 24.3772068 -0.02481842 C32.64740264 -0.02175803 40.91756023 -0.0301154 49.18774862 -0.04056767 C64.82224077 -0.05987612 80.45671977 -0.06553475 96.09122245 -0.06668179 C108.17068179 -0.0676022 120.25013599 -0.07172578 132.32959366 -0.07808304 C135.81143859 -0.07987824 139.29328354 -0.08165787 142.77512848 -0.08343279 C143.6408271 -0.08387489 144.50652572 -0.08431699 145.39845763 -0.08477248 C169.7390158 -0.09707559 194.07957218 -0.10497416 218.42013359 -0.10408592 C219.7957723 -0.10403919 219.7957723 -0.10403919 221.1992017 -0.10399151 C225.84698923 -0.1038253 230.49477675 -0.10362722 235.14256428 -0.10342209 C236.0655642 -0.1033822 236.98856412 -0.10334231 237.93953373 -0.10330121 C239.80606473 -0.10322034 241.67259573 -0.10313674 243.53912673 -0.10305043 C272.56297995 -0.10182561 301.58678639 -0.11682759 330.61062622 -0.14419556 C363.25048135 -0.17496086 395.89030575 -0.19212533 428.53017628 -0.19026911 C432.01516477 -0.19011986 435.50015326 -0.19002244 438.98514175 -0.18996048 C440.27219214 -0.18992552 440.27219214 -0.18992552 441.58524355 -0.18988985 C455.35429991 -0.18982847 469.12331546 -0.20256478 482.89235971 -0.21982501 C496.74805073 -0.23683374 510.60368245 -0.23871455 524.45937817 -0.22560637 C532.67507453 -0.21825164 540.89059 -0.22177016 549.10626695 -0.24149105 C555.26412921 -0.25501449 561.42180188 -0.247286 567.57965554 -0.2317446 C570.05340395 -0.22869172 572.52717232 -0.23224158 575.00089715 -0.24346475 C626.92132004 -0.463223 671.74268285 18.22540998 709.01394653 54.14242554 C733.84587868 79.62462105 750.21467259 112.45456981 756.82644653 147.26742554 C757.00019731 148.15430624 757.17394809 149.04118695 757.35296404 149.95494282 C759.40556148 162.06126823 759.11081296 174.19883829 759.09387207 186.440979 C759.09761201 189.00570914 759.1022149 191.57043813 759.10760272 194.13516533 C759.11786309 199.69618091 759.12075344 205.2571617 759.11869049 210.81818581 C759.1156301 219.08838165 759.12398747 227.35853924 759.13443974 235.62872762 C759.15374819 251.26321977 759.15940682 266.89769878 759.16055386 282.53220145 C759.16147427 294.61166079 759.16559785 306.691115 759.17195511 318.77057266 C759.17375031 322.2524176 759.17552994 325.73426254 759.17730486 329.21610749 C759.17796801 330.51465542 759.17796801 330.51465542 759.17864455 331.83943664 C759.19094766 356.1799948 759.19884623 380.52055118 759.19795799 404.86111259 C759.19792684 405.77820507 759.19789568 406.69529754 759.19786358 407.6401807 C759.19769737 412.28796823 759.19749929 416.93575576 759.19729416 421.58354329 C759.19723433 422.96804316 759.19723433 422.96804316 759.19717328 424.38051273 C759.19709241 426.24704374 759.19700881 428.11357474 759.1969225 429.98010574 C759.19569768 459.00395895 759.21069966 488.02776539 759.23806763 517.05160522 C759.26883293 549.69146035 759.2859974 582.33128475 759.28414118 614.97115529 C759.28399193 618.45614378 759.28389451 621.94113226 759.28383255 625.42612076 C759.28379759 626.71317115 759.28379759 626.71317115 759.28376192 628.02622255 C759.28370054 641.79527892 759.29643685 655.56429446 759.31369708 669.33333872 C759.33070581 683.18902973 759.33258662 697.04466146 759.31947844 710.90035717 C759.31212371 719.11605354 759.31564223 727.331569 759.33536312 735.54724595 C759.34888657 741.70510821 759.34115807 747.86278089 759.32561667 754.02063455 C759.32256379 756.49438295 759.32611365 758.96815133 759.33733682 761.44187616 C759.55709507 813.36229904 740.86846209 858.18366185 704.95144653 895.45492554 C679.46925102 920.28685769 646.63930226 936.65565159 611.82644653 943.26742554 C610.93956583 943.44117632 610.05268512 943.61492709 609.13892925 943.79394305 C597.03260384 945.84654049 584.89503378 945.55179196 572.65289307 945.53485107 C570.08816293 945.53859102 567.52343394 945.54319391 564.95870674 945.54858172 C559.39769116 945.55884209 553.83671037 945.56173244 548.27568626 945.55966949 C540.00549042 945.5566091 531.73533283 945.56496647 523.46514445 945.57541875 C507.8306523 945.5947272 492.19617329 945.60038582 476.56167062 945.60153286 C464.48221128 945.60245327 452.40275708 945.60657686 440.32329941 945.61293411 C436.84145447 945.61472932 433.35960953 945.61650894 429.87776458 945.61828387 C428.57921665 945.61894701 428.57921665 945.61894701 427.25443543 945.61962355 C402.91387727 945.63192666 378.57332089 945.63982524 354.23275948 945.638937 C352.85712076 945.63889026 352.85712076 945.63889026 351.45369137 945.63884258 C346.80590384 945.63867637 342.15811631 945.63847829 337.51032878 945.63827316 C336.58732887 945.63823327 335.66432895 945.63819338 334.71335934 945.63815228 C332.84682833 945.63807141 330.98029733 945.63798781 329.11376633 945.6379015 C300.08991312 945.63667668 271.06610668 945.65167866 242.04226685 945.67904663 C209.40241172 945.70981194 176.76258732 945.7269764 144.12271678 945.72512019 C140.63772829 945.72497094 137.15273981 945.72487352 133.66775131 945.72481155 C132.80971772 945.72478825 131.95168413 945.72476494 131.06764952 945.72474092 C117.29859315 945.72467954 103.52957761 945.73741586 89.76053335 945.75467608 C75.90484234 945.77168481 62.04921061 945.77356562 48.1935149 945.76045744 C39.97781853 945.75310272 31.76230307 945.75662123 23.54662612 945.77634212 C17.38876386 945.78986557 11.23109118 945.78213707 5.07323752 945.76659568 C2.59948912 945.7635428 0.12572074 945.76709265 -2.34800409 945.77831583 C-54.26842697 945.99807407 -99.08978978 927.30944109 -136.36105347 891.39242554 C-161.19298562 865.91023003 -177.56177952 833.08028126 -184.17355347 798.26742554 C-184.34730425 797.38054483 -184.52105502 796.49366413 -184.70007098 795.57990825 C-186.75266841 783.47358284 -186.45791989 771.33601279 -186.440979 759.09387207 C-186.44471895 756.52914194 -186.44932184 753.96441294 -186.45470965 751.39968574 C-186.46497002 745.83867017 -186.46786037 740.27768937 -186.46579742 734.71666527 C-186.46273703 726.44646943 -186.4710944 718.17631184 -186.48154668 709.90612345 C-186.50085513 694.2716313 -186.50651375 678.6371523 -186.50766079 663.00264962 C-186.5085812 650.92319029 -186.51270478 638.84373608 -186.51906204 626.76427841 C-186.52085725 623.28243348 -186.52263687 619.80058853 -186.5244118 616.31874359 C-186.52485389 615.45304497 -186.52529599 614.58734635 -186.52575148 613.69541444 C-186.53805459 589.35485627 -186.54595317 565.01429989 -186.54506493 540.67373848 C-186.54503377 539.756646 -186.54500261 538.83955353 -186.54497051 537.89467037 C-186.5448043 533.24688284 -186.54460622 528.59909532 -186.54440109 523.95130779 C-186.5443612 523.02830787 -186.54432131 522.10530795 -186.54428021 521.15433834 C-186.54419934 519.28780734 -186.54411574 517.42127634 -186.54402943 515.55474534 C-186.54280461 486.53089212 -186.55780659 457.50708568 -186.58517456 428.48324585 C-186.61593987 395.84339072 -186.63310433 363.20356632 -186.63124812 330.56369579 C-186.63109887 327.0787073 -186.63100145 323.59371881 -186.63093948 320.10873032 C-186.63091617 319.25069672 -186.63089287 318.39266313 -186.63086885 317.50862852 C-186.63080747 303.73957216 -186.64354379 289.97055661 -186.66080401 276.20151236 C-186.67781274 262.34582134 -186.67969355 248.49018962 -186.66658537 234.6344939 C-186.65923065 226.41879754 -186.66274916 218.20328207 -186.68247005 209.98760512 C-186.6959935 203.82974287 -186.688265 197.67207019 -186.67272361 191.51421653 C-186.66967072 189.04046812 -186.67322058 186.56669975 -186.68444376 184.09297492 C-186.904202 132.17255203 -168.21556902 87.35118922 -132.29855347 50.07992554 C-106.81635796 25.24799339 -73.98640919 8.87919948 -39.17355347 2.26742554 C-38.28667276 2.09367476 -37.39979206 1.91992398 -36.48603618 1.74090803 C-24.37971077 -0.31168941 -12.24214072 -0.01694089 0 0 Z M-105.17355347 49.26742554 C-106.0282019 49.9184021 -106.88285034 50.56937866 -107.76339722 51.24008179 C-136.23975899 73.61137921 -156.84762266 105.05649399 -165.92355347 140.14242554 C-166.12231079 140.8955603 -166.32106812 141.64869507 -166.52584839 142.4246521 C-170.54349042 158.89474571 -170.46298297 175.57557472 -170.43424988 192.41105652 C-170.43727471 194.93585357 -170.44116586 197.46064971 -170.44584244 199.98544425 C-170.45395558 205.44981424 -170.45593516 210.91413185 -170.45233917 216.37850571 C-170.44700574 224.50471621 -170.45315384 232.63089075 -170.46142211 240.75709735 C-170.47662355 256.11835507 -170.47837118 271.47959625 -170.47589908 286.84085993 C-170.47406308 298.70622744 -170.47583245 310.57158956 -170.48012352 322.43695641 C-170.48072593 324.14447488 -170.48132713 325.85199336 -170.48192712 327.55951184 C-170.48283442 330.13289014 -170.48374309 332.70626845 -170.48465947 335.27964675 C-170.49308313 359.19046132 -170.49742873 383.10127388 -170.49325275 407.01208973 C-170.49309638 407.91257357 -170.49294 408.81305741 -170.49277889 409.74082863 C-170.49197316 414.3043535 -170.49112739 418.86787835 -170.49026559 423.4314032 C-170.4900945 424.33765855 -170.48992341 425.2439139 -170.48974714 426.17763154 C-170.48940048 428.01029729 -170.48905195 429.84296305 -170.48870155 431.6756288 C-170.48334478 460.18971976 -170.49127594 488.7037798 -170.50973511 517.21786499 C-170.53047241 549.28820828 -170.54117458 581.35853241 -170.53715962 613.42888278 C-170.5367643 616.85140431 -170.53640275 620.27392584 -170.53606224 623.69644737 C-170.53597151 624.5390965 -170.53588078 625.38174563 -170.5357873 626.24992958 C-170.53462364 638.94413749 -170.54125186 651.638326 -170.55187416 664.33252907 C-170.56394883 678.77671156 -170.565459 693.22085142 -170.55308399 707.66503457 C-170.54647687 715.73714136 -170.54803664 723.80914608 -170.56167251 731.88124462 C-170.57094153 737.92498371 -170.56434781 743.96860017 -170.55182471 750.01233777 C-170.54918421 752.44487455 -170.55152379 754.87742337 -170.55956057 757.3099483 C-170.70486921 804.60173309 -156.1019795 845.79328392 -123.17355347 880.26742554 C-122.36015503 881.13367554 -121.54675659 881.99992554 -120.70870972 882.89242554 C-100.9256318 903.41296017 -73.78622671 917.90699097 -46.29855347 925.01742554 C-45.5454187 925.21618286 -44.79228394 925.41494019 -44.0163269 925.61972046 C-27.57318265 929.63078858 -10.91649351 929.55868529 5.89173889 929.53485107 C8.40813522 929.53859311 10.9245304 929.54319682 13.44092375 929.54858172 C18.88709763 929.55822416 24.33322074 929.56173601 29.77940178 929.55966949 C37.87888061 929.55660382 45.97832051 929.56497798 54.07779174 929.57541875 C69.3904511 929.59470776 84.70309701 929.60038507 100.01576709 929.60153286 C111.84723512 929.6024539 123.67869793 929.60658068 135.51016426 929.61293411 C138.92266211 929.61472936 142.33515997 929.61650899 145.74765784 929.61828387 C147.02039884 929.61894701 147.02039884 929.61894701 148.31885179 929.61962355 C172.16892945 929.63192312 196.01900529 929.63982559 219.86908627 929.638937 C220.76733593 929.63890584 221.6655856 929.63887468 222.59105495 929.63884258 C227.14317549 929.63867638 231.69529602 929.6384783 236.24741655 929.63827316 C237.60337939 929.63821333 237.60337939 929.63821333 238.98673542 929.63815228 C240.81479248 929.63807141 242.64284954 929.63798781 244.4709066 929.6379015 C272.89778999 929.63667663 301.32462563 929.65168113 329.75149536 929.67904663 C361.73180404 929.70982064 393.71208135 929.72697591 425.69240576 929.72512019 C429.10773281 929.72497094 432.52305986 929.72487352 435.93838692 929.72481155 C437.19967908 929.72477659 437.19967908 929.72477659 438.48645188 929.72474092 C451.97134967 929.72467958 465.45620573 929.73740773 478.94109114 929.75467608 C492.5130385 929.77169548 506.08492534 929.77355733 519.65687751 929.76045744 C527.70109272 929.75311004 535.74512311 929.75659888 543.78931843 929.77634212 C549.82296011 929.78988885 555.85638859 929.78211761 561.89003319 929.76659568 C564.31056504 929.76354827 566.73111738 929.76707142 569.15162503 929.77831583 C589.69160366 929.86731626 610.98512532 928.66191203 630.45144653 921.51742554 C631.43105347 921.17380981 632.4106604 920.83019409 633.41995239 920.47616577 C641.92634811 917.40877778 649.9629195 913.71906594 657.82644653 909.26742554 C658.47436157 908.90503784 659.12227661 908.54265015 659.78982544 908.16928101 C668.03841979 903.51669399 675.66348897 898.50185157 682.82644653 892.26742554 C683.63339966 891.57004272 684.44035278 890.87265991 685.27175903 890.15414429 C700.72945448 876.51357605 712.82111154 862.24311213 722.82644653 844.26742554 C723.16917603 843.6612439 723.51190552 843.05506226 723.86502075 842.43051147 C728.46195035 834.19608804 731.98185073 825.67100939 735.07644653 816.76742554 C735.39363647 815.88643188 735.71082642 815.00543823 736.03762817 814.0977478 C742.47794471 794.70236322 743.41532427 774.51180296 743.32765198 754.25750732 C743.33155483 751.72396745 743.3372031 749.19042978 743.34442288 746.65689719 C743.35601683 741.19500571 743.35546726 735.73333512 743.34364319 730.27144814 C743.32610842 722.14898958 743.33181571 714.02665692 743.3418101 705.90419145 C743.3589234 691.39009848 743.35351165 676.87608151 743.33845291 662.3619902 C743.32536155 649.66113656 743.32021278 636.9603092 743.32277107 624.25944901 C743.32293149 623.41446092 743.3230919 622.56947284 743.32325718 621.69887906 C743.32392085 618.2681592 743.32462328 614.83743935 743.32538252 611.40671951 C743.33239405 579.27646921 743.31695689 547.1462651 743.29075906 515.01602656 C743.26764276 486.51419974 743.26225873 458.01242368 743.27249146 429.5105896 C743.27509379 422.20927622 743.2776789 414.90796284 743.28008938 407.6066494 C743.28053555 406.25803274 743.28053555 406.25803274 743.28099073 404.8821713 C743.28861697 381.01427418 743.28218338 357.14638117 743.27139336 333.27848589 C743.27024564 330.70828311 743.26910246 328.13808033 743.26796653 325.56787754 C743.26721129 323.86312275 743.26644565 322.15836796 743.26566953 320.45361318 C743.26002751 307.76407814 743.26133005 295.07455628 743.26589775 282.38502121 C743.27102084 267.94801276 743.265085 253.51105335 743.24500345 239.07405709 C743.23407164 231.00900589 743.23117291 222.94405119 743.24029199 214.87899718 C743.24617531 208.83723922 743.23618293 202.7956122 743.22029234 196.75386794 C743.2162777 194.32487249 743.21719689 191.89586226 743.2238112 189.4668725 C743.33982619 142.8381475 730.23570223 100.75372558 697.259552 66.74740601 C695.92709176 65.37136274 694.61232712 63.97824464 693.29910278 62.58383179 C682.86019569 51.7388732 670.91550831 43.55284672 657.82644653 36.26742554 C657.22026489 35.92469604 656.61408325 35.58196655 655.98953247 35.22885132 C647.79669112 30.65513524 639.30110583 27.12161148 630.45144653 24.01742554 C629.58721069 23.7002356 628.72297485 23.38304565 627.83255005 23.0562439 C607.87413622 16.38240275 586.48920205 15.6754805 565.65194702 15.76622009 C563.12493063 15.76231587 560.59791645 15.75666653 558.07090735 15.74944919 C552.62946575 15.73786837 547.18824602 15.73839172 541.74680901 15.75022888 C533.65479157 15.76778292 525.56290029 15.76204945 517.47087587 15.75206197 C503.01071953 15.73495954 488.55063954 15.74035324 474.09048487 15.75541916 C461.43800983 15.76851544 448.78556116 15.77365835 436.13307953 15.771101 C435.29100162 15.77094058 434.44892371 15.77078017 433.58132829 15.77061489 C430.16236496 15.76995122 426.74340164 15.76924879 423.32443833 15.76848955 C391.31275114 15.76147997 359.30111034 15.77690909 327.28943495 15.80311301 C298.89469379 15.8262331 270.50000358 15.83161157 242.10525513 15.82138062 C234.83008451 15.81877826 227.55491388 15.81619315 220.27974319 15.81378269 C219.38387473 15.81348524 218.48800627 15.8131878 217.56499028 15.81288134 C193.78269163 15.80525525 170.00039711 15.81168846 146.21810031 15.82247871 C143.65719215 15.82362643 141.09628399 15.8247696 138.53537583 15.82590554 C136.83680512 15.82666078 135.13823442 15.82742642 133.43966372 15.82820254 C120.79727803 15.83384411 108.15490556 15.83254236 95.51251984 15.82797432 C81.1304565 15.82285128 66.74844238 15.82878699 52.36639127 15.84886862 C44.3324347 15.85979997 36.298575 15.86269957 28.26461561 15.85358008 C22.24608827 15.84769645 16.22769237 15.85768973 10.20917878 15.87357973 C7.78966432 15.87759412 5.37013502 15.87667562 2.95062628 15.87006087 C-36.45991584 15.77161459 -73.63006058 24.56236928 -105.17355347 49.26742554 Z " fill="#000000" transform="translate(186.17355346679688,-0.267425537109375)"/>
<path d="M0 0 C0.61230469 0.42796875 1.22460938 0.8559375 1.85546875 1.296875 C12.47855034 9.56197281 18.58481511 22.01323022 24 34 C24.69222656 35.50046875 24.69222656 35.50046875 25.3984375 37.03125 C31.48257073 51.44715805 34.55300918 67.51567133 36.8125 82.9375 C36.92416504 83.69095703 37.03583008 84.44441406 37.15087891 85.22070312 C39.57354708 103.47378836 39.18785033 121.99399756 39.18530273 140.36694336 C39.18522135 143.41225099 39.19219846 146.4574086 39.20581055 149.50268555 C39.34961993 182.21009923 39.34961993 182.21009923 37 198 C36.84329834 199.06371826 36.68659668 200.12743652 36.52514648 201.22338867 C36.10261309 203.86813475 35.63192372 206.49526894 35.125 209.125 C34.9506543 210.0432959 34.77630859 210.9615918 34.59667969 211.90771484 C34.07611901 214.60759575 33.53983137 217.3039162 33 220 C32.78005371 221.14082031 32.78005371 221.14082031 32.55566406 222.3046875 C28.59999013 242.54896796 20.66601148 262.38170116 7 278 C6.43410156 278.6496875 5.86820312 279.299375 5.28515625 279.96875 C-3.65101521 289.55673631 -15.89201612 294.89204244 -28.95581055 295.47290039 C-44.51653615 295.67918733 -56.94908843 289.92814257 -68.1875 279.375 C-85.33313535 261.38836039 -92.59906956 235.80459415 -97 212 C-97.14179688 211.2476709 -97.28359375 210.4953418 -97.4296875 209.72021484 C-101.54309955 187.46995412 -102.34122805 164.90066954 -102.26074219 142.32128906 C-102.24996228 138.73745997 -102.26075316 135.15412723 -102.2734375 131.5703125 C-102.2990388 90.92119859 -98.82212888 42.73793033 -72 10 C-71.37738281 9.17242187 -70.75476563 8.34484375 -70.11328125 7.4921875 C-52.14177078 -13.70157161 -21.93774029 -15.43045321 0 0 Z " fill="#FEFEFE" transform="translate(238,334)"/>
<path d="M0 0 C21.07970078 17.65345334 33.17949707 42.56699118 40.35839844 68.68164062 C40.70515625 69.92945313 41.05191406 71.17726563 41.40917969 72.46289062 C49.14853805 101.86647605 51.63831229 131.56550863 51.60839844 161.86914062 C51.60771362 162.8549411 51.60702881 163.84074158 51.60632324 164.85641479 C51.58288681 175.07906487 51.4046185 185.28636935 50.91699219 195.49804688 C50.88031433 196.28237595 50.84363647 197.06670502 50.80584717 197.87480164 C50.30708906 207.23954243 48.89746071 216.44008182 47.35839844 225.68164062 C47.16648926 226.87901855 46.97458008 228.07639648 46.77685547 229.31005859 C41.1861813 263.72912814 31.22731992 298.05096839 6.35839844 323.68164062 C5.42447266 324.72578125 5.42447266 324.72578125 4.47167969 325.79101562 C-8.34961795 339.66059545 -29.14621308 348.34516866 -47.94238281 349.58789062 C-49.27849609 349.63429688 -49.27849609 349.63429688 -50.64160156 349.68164062 C-52.42630859 349.75898437 -52.42630859 349.75898437 -54.24707031 349.83789062 C-64.048822 350.12728144 -73.10630003 348.8924256 -82.64160156 346.68164062 C-83.53234375 346.48828125 -84.42308594 346.29492188 -85.34082031 346.09570312 C-97.30361948 343.05062697 -108.59864851 335.9194977 -117.64160156 327.68164062 C-119.08986328 326.37259766 -119.08986328 326.37259766 -120.56738281 325.03710938 C-139.79626598 307.07316312 -149.62168324 282.56329654 -156.64160156 257.68164062 C-156.94638428 256.62565674 -156.94638428 256.62565674 -157.25732422 255.54833984 C-159.65065938 247.15393064 -161.27878588 238.64938029 -162.76660156 230.05664062 C-162.92539795 229.1583252 -163.08419434 228.26000977 -163.24780273 227.33447266 C-166.4508664 207.89367907 -166.99357621 188.4188623 -166.95727539 168.75341797 C-166.95266602 166.05305218 -166.95950521 163.3531393 -166.9777832 160.65283203 C-167.16394213 132.83886205 -165.18469426 105.80342054 -158.64160156 78.68164062 C-158.33585205 77.38081543 -158.33585205 77.38081543 -158.02392578 76.05371094 C-150.41056267 43.94117208 -135.06549336 12.04334774 -106.57910156 -6.38085938 C-73.76801555 -25.84122763 -30.03795334 -24.12328198 0 0 Z M-89.64160156 23.68164062 C-90.28742188 24.143125 -90.93324219 24.60460937 -91.59863281 25.08007812 C-99.61127288 31.3382575 -104.65683344 40.36203218 -109.39160156 49.18164062 C-109.75624512 49.85686768 -110.12088867 50.53209473 -110.49658203 51.2277832 C-125.16812688 79.38573437 -128.77722522 115.00443293 -128.80957031 146.28710938 C-128.81289871 147.45003006 -128.81622711 148.61295074 -128.81965637 149.81111145 C-128.8246847 152.2607077 -128.82706598 154.7103107 -128.8269043 157.15991211 C-128.82906953 160.81506379 -128.84721124 164.46990233 -128.86621094 168.125 C-128.91827515 189.28441302 -128.01615178 210.373353 -124.32910156 231.24414062 C-124.00317017 233.13241577 -124.00317017 233.13241577 -123.6706543 235.05883789 C-119.58783515 257.8799578 -112.17389869 281.95456238 -96.64160156 299.68164062 C-96.04863281 300.36871094 -95.45566406 301.05578125 -94.84472656 301.76367188 C-85.49862304 311.86287051 -73.52747489 317.48659602 -59.83081055 318.08203125 C-44.64794556 318.35498163 -32.11688183 312.95123541 -21.01660156 302.61914062 C6.52256415 273.5063083 12.50597797 224.796807 12.52636719 186.64648438 C12.52959531 185.19991526 12.53296043 183.75334645 12.53645325 182.30677795 C12.54240872 179.28027597 12.54429733 176.25380235 12.54370117 173.22729492 C12.54362063 170.18198616 12.55045256 167.13683012 12.56420898 164.09155273 C12.75983926 120.0794254 11.94604127 70.44580465 -15.64160156 33.68164062 C-16.11984375 33.02035156 -16.59808594 32.3590625 -17.09082031 31.67773438 C-24.79334039 21.812329 -37.26519653 14.52886526 -49.64160156 12.68164062 C-65.04644347 11.64215461 -76.9968879 14.43735721 -89.64160156 23.68164062 Z " fill="#010101" transform="translate(264.6416015625,311.318359375)"/>
<path d="M0 0 C0.71542969 0.59683594 1.43085937 1.19367188 2.16796875 1.80859375 C3.13347656 2.57429688 4.09898437 3.34 5.09375 4.12890625 C22.48247106 18.68658691 32.18604512 43.59014189 34.57421875 65.54296875 C34.85476541 69.29917685 35.03651963 73.04436908 35.16796875 76.80859375 C35.24724609 78.43474609 35.24724609 78.43474609 35.328125 80.09375 C36.65665022 128.5560394 11.64920808 174.36932436 -16.83203125 211.80859375 C-17.31269043 212.44087891 -17.79334961 213.07316406 -18.28857422 213.72460938 C-26.97417923 225.0815551 -36.18903318 235.98749658 -45.8046875 246.56640625 C-47.57170324 248.52067799 -49.30116654 250.49919112 -51.01953125 252.49609375 C-61.40662123 264.37981483 -72.48523436 275.62503563 -83.65771484 286.76464844 C-85.86154422 288.96303381 -88.05986516 291.16682907 -90.2578125 293.37109375 C-91.67806428 294.79068594 -93.09862559 296.20996854 -94.51953125 297.62890625 C-95.16647949 298.27787872 -95.81342773 298.9268512 -96.47998047 299.5954895 C-97.09502441 300.20738129 -97.71006836 300.81927307 -98.34375 301.44970703 C-98.87444092 301.97960236 -99.40513184 302.50949768 -99.9519043 303.05545044 C-102.48896633 305.42115948 -105.15381446 307.60394186 -107.83203125 309.80859375 C-107.02565216 309.74903063 -106.21927307 309.68946751 -105.38845825 309.62809944 C-85.80728562 308.21338177 -66.38090286 307.52077413 -46.7405014 307.60580587 C-43.23863112 307.61867933 -39.73675358 307.61951148 -36.23486328 307.62185669 C-29.66269204 307.6279677 -23.09059079 307.64423086 -16.51844978 307.66455567 C-9.01120999 307.68724689 -1.50396607 307.6979898 6.00329971 307.70794654 C21.39156965 307.72861211 36.77974369 307.76515062 52.16796875 307.80859375 C52.16796875 319.02859375 52.16796875 330.24859375 52.16796875 341.80859375 C-20.76203125 341.80859375 -93.69203125 341.80859375 -168.83203125 341.80859375 C-168.83203125 317.80859375 -168.83203125 317.80859375 -161.83203125 309.74609375 C-157.65625 306.50390625 -157.65625 306.50390625 -155.63037109 305.07910156 C-153.49307432 303.56912432 -151.57219437 301.88846079 -149.64453125 300.12109375 C-149.04640625 299.60546875 -148.44828125 299.08984375 -147.83203125 298.55859375 C-144.21764555 295.39600626 -140.69614562 292.13089292 -137.16577148 288.87524414 C-135.10571921 286.97721972 -133.03872763 285.0881149 -130.96508789 283.20483398 C-122.45087984 275.45422802 -114.26529529 267.39607173 -106.13671875 259.24365234 C-103.94254623 257.04407303 -101.74301402 254.84995368 -99.54296875 252.65625 C-98.12077269 251.23339375 -96.69888654 249.81022766 -95.27734375 248.38671875 C-94.63241974 247.74381897 -93.98749573 247.10091919 -93.32302856 246.4385376 C-89.51001137 242.60607796 -85.88013231 238.66138426 -82.35101318 234.56568909 C-80.27186852 232.16062072 -78.11417586 229.83118463 -75.95703125 227.49609375 C-71.03683593 222.09352634 -66.39042307 216.51801762 -61.83203125 210.80859375 C-61.20409668 210.03008057 -61.20409668 210.03008057 -60.56347656 209.23583984 C-48.45578101 194.21565563 -37.47724938 178.52507574 -27.83203125 161.80859375 C-27.39616699 161.05352539 -26.96030273 160.29845703 -26.51123047 159.52050781 C-9.97190491 130.46710502 2.14597111 93.22497347 -6.8671875 59.7890625 C-7.18558594 58.80550781 -7.50398437 57.82195312 -7.83203125 56.80859375 C-8.16074219 55.73222656 -8.48945312 54.65585937 -8.828125 53.546875 C-13.96974294 38.51342463 -23.3647802 26.59839193 -37.39453125 19.05859375 C-55.26948357 10.41488287 -75.93049586 8.70011424 -94.84033203 15.08105469 C-114.68913653 22.33153733 -134.34527646 35.50764005 -146.83203125 52.80859375 C-149.83884925 51.46859877 -151.82965734 50.01014084 -154.08203125 47.62109375 C-157.22987621 44.37192331 -160.53968031 41.40516275 -163.96484375 38.453125 C-166.36715163 36.3372848 -168.60411959 34.10612765 -170.83203125 31.80859375 C-168.83092058 27.43367441 -165.96618861 24.59873021 -162.58203125 21.24609375 C-161.95941406 20.62839111 -161.33679688 20.01068848 -160.6953125 19.37426758 C-141.55860772 0.70683562 -118.23311337 -13.92863547 -91.83203125 -19.19140625 C-90.9296875 -19.41441406 -90.02734375 -19.63742187 -89.09765625 -19.8671875 C-59.66053044 -26.58653144 -23.43609436 -18.90300067 0 0 Z " fill="#010101" transform="translate(663.83203125,313.19140625)"/>
<path d="M0 0 C1.77697266 0.10441406 1.77697266 0.10441406 3.58984375 0.2109375 C20.97670012 1.85292813 36.31550438 10.00660098 47.8125 23.1875 C60.45096941 39.6724601 64.93861428 58.54910409 63 79 C60.53643913 96.5928181 51.21547731 112.67907786 37.4375 123.75 C25.85148422 131.9396076 14.14737146 136.09804243 0 137 C-0.77214844 137.06960938 -1.54429687 137.13921875 -2.33984375 137.2109375 C-18.70748436 138.02774874 -35.20256955 132.2828554 -47.5 121.5625 C-49.02188048 120.06356244 -50.5231755 118.54334812 -52 117 C-52.70511719 116.31421875 -53.41023437 115.6284375 -54.13671875 114.921875 C-65.0201964 103.72744084 -70.16513348 88.39592084 -71 73 C-71.06445312 71.97519531 -71.12890625 70.95039063 -71.1953125 69.89453125 C-71.81603226 51.58329833 -65.55996729 34.40285999 -53.50390625 20.53125 C-39.0552304 5.9247883 -20.43341643 -1.27856835 0 0 Z " fill="#020202" transform="translate(834,282)"/>
<path d="M0 0 C0.7849585 0.00572021 1.56991699 0.01144043 2.37866211 0.01733398 C13.27675242 0.34893247 22.50742309 4.86165008 30.25 12.5 C40.53100712 24.43331183 43.16961812 38.10057661 42.25 53.5 C40.28391316 65.40488803 34.75264194 76.92985674 24.9296875 84.22265625 C14.24425389 91.03922597 3.71862684 92.62889907 -8.75 91.5 C-18.57618953 89.18410713 -28.12415752 82.91538764 -33.75 74.5 C-41.43771393 61.29999239 -43.99028003 48.38286979 -40.5625 33.25 C-36.96741634 20.67556784 -30.84541868 11.45041923 -19.47265625 4.82421875 C-12.91137138 1.63300559 -7.3389245 -0.06275301 0 0 Z " fill="#FCFCFC" transform="translate(829.75,304.5)"/>
<path d="M0 0 C6.35053107 5.01170643 9.83444281 11.30312707 11.59375 19.15234375 C11.655625 20.26609375 11.7175 21.37984375 11.78125 22.52734375 C11.86375 23.78546875 11.94625 25.04359375 12.03125 26.33984375 C11.84898744 35.78104444 7.851086 44.43209504 1.22265625 51.09375 C-5.35699216 56.37955867 -13.52186636 57.85250966 -21.78125 57.58984375 C-29.23911321 56.7572557 -34.86720066 54.03510938 -40.0625 48.59765625 C-46.89312165 39.99241231 -49.04877185 30.96363136 -47.98046875 20.10546875 C-46.61401508 11.21661862 -42.11643303 4.27879134 -35.046875 -1.25390625 C-24.23472484 -8.46200636 -10.52749156 -6.98743718 0 0 Z " fill="#010101" transform="translate(425.21875,603.47265625)"/>
</svg>
