<?xml version="1.0" encoding="UTF-8"?>
<svg version="1.1" xmlns="http://www.w3.org/2000/svg" width="945" height="945">
<path d="M0 0 C2.56473013 -0.00373994 5.12945913 -0.00834283 7.69418633 -0.01373065 C13.2552019 -0.02399102 18.8161827 -0.02688137 24.3772068 -0.02481842 C32.64740264 -0.02175803 40.91756023 -0.0301154 49.18774862 -0.04056767 C64.82224077 -0.05987612 80.45671977 -0.06553475 96.09122245 -0.06668179 C108.17068179 -0.0676022 120.25013599 -0.07172578 132.32959366 -0.07808304 C135.81143859 -0.07987824 139.29328354 -0.08165787 142.77512848 -0.08343279 C143.6408271 -0.08387489 144.50652572 -0.08431699 145.39845763 -0.08477248 C169.7390158 -0.09707559 194.07957218 -0.10497416 218.42013359 -0.10408592 C219.7957723 -0.10403919 219.7957723 -0.10403919 221.1992017 -0.10399151 C225.84698923 -0.1038253 230.49477675 -0.10362722 235.14256428 -0.10342209 C236.0655642 -0.1033822 236.98856412 -0.10334231 237.93953373 -0.10330121 C239.80606473 -0.10322034 241.67259573 -0.10313674 243.53912673 -0.10305043 C272.56297995 -0.10182561 301.58678639 -0.11682759 330.61062622 -0.14419556 C363.25048135 -0.17496086 395.89030575 -0.19212533 428.53017628 -0.19026911 C432.01516477 -0.19011986 435.50015326 -0.19002244 438.98514175 -0.18996048 C440.27219214 -0.18992552 440.27219214 -0.18992552 441.58524355 -0.18988985 C455.35429991 -0.18982847 469.12331546 -0.20256478 482.89235971 -0.21982501 C496.74805073 -0.23683374 510.60368245 -0.23871455 524.45937817 -0.22560637 C532.67507453 -0.21825164 540.89059 -0.22177016 549.10626695 -0.24149105 C555.26412921 -0.25501449 561.42180188 -0.247286 567.57965554 -0.2317446 C570.05340395 -0.22869172 572.52717232 -0.23224158 575.00089715 -0.24346475 C626.92132004 -0.463223 671.74268285 18.22540998 709.01394653 54.14242554 C733.84587868 79.62462105 750.21467259 112.45456981 756.82644653 147.26742554 C757.00019731 148.15430624 757.17394809 149.04118695 757.35296404 149.95494282 C759.40556148 162.06126823 759.11081296 174.19883829 759.09387207 186.440979 C759.09761201 189.00570914 759.1022149 191.57043813 759.10760272 194.13516533 C759.11786309 199.69618091 759.12075344 205.2571617 759.11869049 210.81818581 C759.1156301 219.08838165 759.12398747 227.35853924 759.13443974 235.62872762 C759.15374819 251.26321977 759.15940682 266.89769878 759.16055386 282.53220145 C759.16147427 294.61166079 759.16559785 306.691115 759.17195511 318.77057266 C759.17375031 322.2524176 759.17552994 325.73426254 759.17730486 329.21610749 C759.17796801 330.51465542 759.17796801 330.51465542 759.17864455 331.83943664 C759.19094766 356.1799948 759.19884623 380.52055118 759.19795799 404.86111259 C759.19792684 405.77820507 759.19789568 406.69529754 759.19786358 407.6401807 C759.19769737 412.28796823 759.19749929 416.93575576 759.19729416 421.58354329 C759.19723433 422.96804316 759.19723433 422.96804316 759.19717328 424.38051273 C759.19709241 426.24704374 759.19700881 428.11357474 759.1969225 429.98010574 C759.19569768 459.00395895 759.21069966 488.02776539 759.23806763 517.05160522 C759.26883293 549.69146035 759.2859974 582.33128475 759.28414118 614.97115529 C759.28399193 618.45614378 759.28389451 621.94113226 759.28383255 625.42612076 C759.28379759 626.71317115 759.28379759 626.71317115 759.28376192 628.02622255 C759.28370054 641.79527892 759.29643685 655.56429446 759.31369708 669.33333872 C759.33070581 683.18902973 759.33258662 697.04466146 759.31947844 710.90035717 C759.31212371 719.11605354 759.31564223 727.331569 759.33536312 735.54724595 C759.34888657 741.70510821 759.34115807 747.86278089 759.32561667 754.02063455 C759.32256379 756.49438295 759.32611365 758.96815133 759.33733682 761.44187616 C759.55709507 813.36229904 740.86846209 858.18366185 704.95144653 895.45492554 C679.46925102 920.28685769 646.63930226 936.65565159 611.82644653 943.26742554 C610.93956583 943.44117632 610.05268512 943.61492709 609.13892925 943.79394305 C597.03260384 945.84654049 584.89503378 945.55179196 572.65289307 945.53485107 C570.08816293 945.53859102 567.52343394 945.54319391 564.95870674 945.54858172 C559.39769116 945.55884209 553.83671037 945.56173244 548.27568626 945.55966949 C540.00549042 945.5566091 531.73533283 945.56496647 523.46514445 945.57541875 C507.8306523 945.5947272 492.19617329 945.60038582 476.56167062 945.60153286 C464.48221128 945.60245327 452.40275708 945.60657686 440.32329941 945.61293411 C436.84145447 945.61472932 433.35960953 945.61650894 429.87776458 945.61828387 C428.57921665 945.61894701 428.57921665 945.61894701 427.25443543 945.61962355 C402.91387727 945.63192666 378.57332089 945.63982524 354.23275948 945.638937 C352.85712076 945.63889026 352.85712076 945.63889026 351.45369137 945.63884258 C346.80590384 945.63867637 342.15811631 945.63847829 337.51032878 945.63827316 C336.58732887 945.63823327 335.66432895 945.63819338 334.71335934 945.63815228 C332.84682833 945.63807141 330.98029733 945.63798781 329.11376633 945.6379015 C300.08991312 945.63667668 271.06610668 945.65167866 242.04226685 945.67904663 C209.40241172 945.70981194 176.76258732 945.7269764 144.12271678 945.72512019 C140.63772829 945.72497094 137.15273981 945.72487352 133.66775131 945.72481155 C132.80971772 945.72478825 131.95168413 945.72476494 131.06764952 945.72474092 C117.29859315 945.72467954 103.52957761 945.73741586 89.76053335 945.75467608 C75.90484234 945.77168481 62.04921061 945.77356562 48.1935149 945.76045744 C39.97781853 945.75310272 31.76230307 945.75662123 23.54662612 945.77634212 C17.38876386 945.78986557 11.23109118 945.78213707 5.07323752 945.76659568 C2.59948912 945.7635428 0.12572074 945.76709265 -2.34800409 945.77831583 C-54.26842697 945.99807407 -99.08978978 927.30944109 -136.36105347 891.39242554 C-161.19298562 865.91023003 -177.56177952 833.08028126 -184.17355347 798.26742554 C-184.34730425 797.38054483 -184.52105502 796.49366413 -184.70007098 795.57990825 C-186.75266841 783.47358284 -186.45791989 771.33601279 -186.440979 759.09387207 C-186.44471895 756.52914194 -186.44932184 753.96441294 -186.45470965 751.39968574 C-186.46497002 745.83867017 -186.46786037 740.27768937 -186.46579742 734.71666527 C-186.46273703 726.44646943 -186.4710944 718.17631184 -186.48154668 709.90612345 C-186.50085513 694.2716313 -186.50651375 678.6371523 -186.50766079 663.00264962 C-186.5085812 650.92319029 -186.51270478 638.84373608 -186.51906204 626.76427841 C-186.52085725 623.28243348 -186.52263687 619.80058853 -186.5244118 616.31874359 C-186.52485389 615.45304497 -186.52529599 614.58734635 -186.52575148 613.69541444 C-186.53805459 589.35485627 -186.54595317 565.01429989 -186.54506493 540.67373848 C-186.54503377 539.756646 -186.54500261 538.83955353 -186.54497051 537.89467037 C-186.5448043 533.24688284 -186.54460622 528.59909532 -186.54440109 523.95130779 C-186.5443612 523.02830787 -186.54432131 522.10530795 -186.54428021 521.15433834 C-186.54419934 519.28780734 -186.54411574 517.42127634 -186.54402943 515.55474534 C-186.54280461 486.53089212 -186.55780659 457.50708568 -186.58517456 428.48324585 C-186.61593987 395.84339072 -186.63310433 363.20356632 -186.63124812 330.56369579 C-186.63109887 327.0787073 -186.63100145 323.59371881 -186.63093948 320.10873032 C-186.63091617 319.25069672 -186.63089287 318.39266313 -186.63086885 317.50862852 C-186.63080747 303.73957216 -186.64354379 289.97055661 -186.66080401 276.20151236 C-186.67781274 262.34582134 -186.67969355 248.49018962 -186.66658537 234.6344939 C-186.65923065 226.41879754 -186.66274916 218.20328207 -186.68247005 209.98760512 C-186.6959935 203.82974287 -186.688265 197.67207019 -186.67272361 191.51421653 C-186.66967072 189.04046812 -186.67322058 186.56669975 -186.68444376 184.09297492 C-186.904202 132.17255203 -168.21556902 87.35118922 -132.29855347 50.07992554 C-106.81635796 25.24799339 -73.98640919 8.87919948 -39.17355347 2.26742554 C-38.28667276 2.09367476 -37.39979206 1.91992398 -36.48603618 1.74090803 C-24.37971077 -0.31168941 -12.24214072 -0.01694089 0 0 Z " fill="#FEFEFE" transform="translate(186.17355346679688,-0.267425537109375)"/>
<path d="M0 0 C2.56473013 -0.00373994 5.12945913 -0.00834283 7.69418633 -0.01373065 C13.2552019 -0.02399102 18.8161827 -0.02688137 24.3772068 -0.02481842 C32.64740264 -0.02175803 40.91756023 -0.0301154 49.18774862 -0.04056767 C64.82224077 -0.05987612 80.45671977 -0.06553475 96.09122245 -0.06668179 C108.17068179 -0.0676022 120.25013599 -0.07172578 132.32959366 -0.07808304 C135.81143859 -0.07987824 139.29328354 -0.08165787 142.77512848 -0.08343279 C143.6408271 -0.08387489 144.50652572 -0.08431699 145.39845763 -0.08477248 C169.7390158 -0.09707559 194.07957218 -0.10497416 218.42013359 -0.10408592 C219.7957723 -0.10403919 219.7957723 -0.10403919 221.1992017 -0.10399151 C225.84698923 -0.1038253 230.49477675 -0.10362722 235.14256428 -0.10342209 C236.0655642 -0.1033822 236.98856412 -0.10334231 237.93953373 -0.10330121 C239.80606473 -0.10322034 241.67259573 -0.10313674 243.53912673 -0.10305043 C272.56297995 -0.10182561 301.58678639 -0.11682759 330.61062622 -0.14419556 C363.25048135 -0.17496086 395.89030575 -0.19212533 428.53017628 -0.19026911 C432.01516477 -0.19011986 435.50015326 -0.19002244 438.98514175 -0.18996048 C440.27219214 -0.18992552 440.27219214 -0.18992552 441.58524355 -0.18988985 C455.35429991 -0.18982847 469.12331546 -0.20256478 482.89235971 -0.21982501 C496.74805073 -0.23683374 510.60368245 -0.23871455 524.45937817 -0.22560637 C532.67507453 -0.21825164 540.89059 -0.22177016 549.10626695 -0.24149105 C555.26412921 -0.25501449 561.42180188 -0.247286 567.57965554 -0.2317446 C570.05340395 -0.22869172 572.52717232 -0.23224158 575.00089715 -0.24346475 C626.92132004 -0.463223 671.74268285 18.22540998 709.01394653 54.14242554 C733.84587868 79.62462105 750.21467259 112.45456981 756.82644653 147.26742554 C757.00019731 148.15430624 757.17394809 149.04118695 757.35296404 149.95494282 C759.40556148 162.06126823 759.11081296 174.19883829 759.09387207 186.440979 C759.09761201 189.00570914 759.1022149 191.57043813 759.10760272 194.13516533 C759.11786309 199.69618091 759.12075344 205.2571617 759.11869049 210.81818581 C759.1156301 219.08838165 759.12398747 227.35853924 759.13443974 235.62872762 C759.15374819 251.26321977 759.15940682 266.89769878 759.16055386 282.53220145 C759.16147427 294.61166079 759.16559785 306.691115 759.17195511 318.77057266 C759.17375031 322.2524176 759.17552994 325.73426254 759.17730486 329.21610749 C759.17796801 330.51465542 759.17796801 330.51465542 759.17864455 331.83943664 C759.19094766 356.1799948 759.19884623 380.52055118 759.19795799 404.86111259 C759.19792684 405.77820507 759.19789568 406.69529754 759.19786358 407.6401807 C759.19769737 412.28796823 759.19749929 416.93575576 759.19729416 421.58354329 C759.19723433 422.96804316 759.19723433 422.96804316 759.19717328 424.38051273 C759.19709241 426.24704374 759.19700881 428.11357474 759.1969225 429.98010574 C759.19569768 459.00395895 759.21069966 488.02776539 759.23806763 517.05160522 C759.26883293 549.69146035 759.2859974 582.33128475 759.28414118 614.97115529 C759.28399193 618.45614378 759.28389451 621.94113226 759.28383255 625.42612076 C759.28379759 626.71317115 759.28379759 626.71317115 759.28376192 628.02622255 C759.28370054 641.79527892 759.29643685 655.56429446 759.31369708 669.33333872 C759.33070581 683.18902973 759.33258662 697.04466146 759.31947844 710.90035717 C759.31212371 719.11605354 759.31564223 727.331569 759.33536312 735.54724595 C759.34888657 741.70510821 759.34115807 747.86278089 759.32561667 754.02063455 C759.32256379 756.49438295 759.32611365 758.96815133 759.33733682 761.44187616 C759.55709507 813.36229904 740.86846209 858.18366185 704.95144653 895.45492554 C679.46925102 920.28685769 646.63930226 936.65565159 611.82644653 943.26742554 C610.93956583 943.44117632 610.05268512 943.61492709 609.13892925 943.79394305 C597.03260384 945.84654049 584.89503378 945.55179196 572.65289307 945.53485107 C570.08816293 945.53859102 567.52343394 945.54319391 564.95870674 945.54858172 C559.39769116 945.55884209 553.83671037 945.56173244 548.27568626 945.55966949 C540.00549042 945.5566091 531.73533283 945.56496647 523.46514445 945.57541875 C507.8306523 945.5947272 492.19617329 945.60038582 476.56167062 945.60153286 C464.48221128 945.60245327 452.40275708 945.60657686 440.32329941 945.61293411 C436.84145447 945.61472932 433.35960953 945.61650894 429.87776458 945.61828387 C428.57921665 945.61894701 428.57921665 945.61894701 427.25443543 945.61962355 C402.91387727 945.63192666 378.57332089 945.63982524 354.23275948 945.638937 C352.85712076 945.63889026 352.85712076 945.63889026 351.45369137 945.63884258 C346.80590384 945.63867637 342.15811631 945.63847829 337.51032878 945.63827316 C336.58732887 945.63823327 335.66432895 945.63819338 334.71335934 945.63815228 C332.84682833 945.63807141 330.98029733 945.63798781 329.11376633 945.6379015 C300.08991312 945.63667668 271.06610668 945.65167866 242.04226685 945.67904663 C209.40241172 945.70981194 176.76258732 945.7269764 144.12271678 945.72512019 C140.63772829 945.72497094 137.15273981 945.72487352 133.66775131 945.72481155 C132.80971772 945.72478825 131.95168413 945.72476494 131.06764952 945.72474092 C117.29859315 945.72467954 103.52957761 945.73741586 89.76053335 945.75467608 C75.90484234 945.77168481 62.04921061 945.77356562 48.1935149 945.76045744 C39.97781853 945.75310272 31.76230307 945.75662123 23.54662612 945.77634212 C17.38876386 945.78986557 11.23109118 945.78213707 5.07323752 945.76659568 C2.59948912 945.7635428 0.12572074 945.76709265 -2.34800409 945.77831583 C-54.26842697 945.99807407 -99.08978978 927.30944109 -136.36105347 891.39242554 C-161.19298562 865.91023003 -177.56177952 833.08028126 -184.17355347 798.26742554 C-184.34730425 797.38054483 -184.52105502 796.49366413 -184.70007098 795.57990825 C-186.75266841 783.47358284 -186.45791989 771.33601279 -186.440979 759.09387207 C-186.44471895 756.52914194 -186.44932184 753.96441294 -186.45470965 751.39968574 C-186.46497002 745.83867017 -186.46786037 740.27768937 -186.46579742 734.71666527 C-186.46273703 726.44646943 -186.4710944 718.17631184 -186.48154668 709.90612345 C-186.50085513 694.2716313 -186.50651375 678.6371523 -186.50766079 663.00264962 C-186.5085812 650.92319029 -186.51270478 638.84373608 -186.51906204 626.76427841 C-186.52085725 623.28243348 -186.52263687 619.80058853 -186.5244118 616.31874359 C-186.52485389 615.45304497 -186.52529599 614.58734635 -186.52575148 613.69541444 C-186.53805459 589.35485627 -186.54595317 565.01429989 -186.54506493 540.67373848 C-186.54503377 539.756646 -186.54500261 538.83955353 -186.54497051 537.89467037 C-186.5448043 533.24688284 -186.54460622 528.59909532 -186.54440109 523.95130779 C-186.5443612 523.02830787 -186.54432131 522.10530795 -186.54428021 521.15433834 C-186.54419934 519.28780734 -186.54411574 517.42127634 -186.54402943 515.55474534 C-186.54280461 486.53089212 -186.55780659 457.50708568 -186.58517456 428.48324585 C-186.61593987 395.84339072 -186.63310433 363.20356632 -186.63124812 330.56369579 C-186.63109887 327.0787073 -186.63100145 323.59371881 -186.63093948 320.10873032 C-186.63091617 319.25069672 -186.63089287 318.39266313 -186.63086885 317.50862852 C-186.63080747 303.73957216 -186.64354379 289.97055661 -186.66080401 276.20151236 C-186.67781274 262.34582134 -186.67969355 248.49018962 -186.66658537 234.6344939 C-186.65923065 226.41879754 -186.66274916 218.20328207 -186.68247005 209.98760512 C-186.6959935 203.82974287 -186.688265 197.67207019 -186.67272361 191.51421653 C-186.66967072 189.04046812 -186.67322058 186.56669975 -186.68444376 184.09297492 C-186.904202 132.17255203 -168.21556902 87.35118922 -132.29855347 50.07992554 C-106.81635796 25.24799339 -73.98640919 8.87919948 -39.17355347 2.26742554 C-38.28667276 2.09367476 -37.39979206 1.91992398 -36.48603618 1.74090803 C-24.37971077 -0.31168941 -12.24214072 -0.01694089 0 0 Z M-105.17355347 49.26742554 C-106.0282019 49.9184021 -106.88285034 50.56937866 -107.76339722 51.24008179 C-136.23975899 73.61137921 -156.84762266 105.05649399 -165.92355347 140.14242554 C-166.12231079 140.8955603 -166.32106812 141.64869507 -166.52584839 142.4246521 C-170.54349042 158.89474571 -170.46298297 175.57557472 -170.43424988 192.41105652 C-170.43727471 194.93585357 -170.44116586 197.46064971 -170.44584244 199.98544425 C-170.45395558 205.44981424 -170.45593516 210.91413185 -170.45233917 216.37850571 C-170.44700574 224.50471621 -170.45315384 232.63089075 -170.46142211 240.75709735 C-170.47662355 256.11835507 -170.47837118 271.47959625 -170.47589908 286.84085993 C-170.47406308 298.70622744 -170.47583245 310.57158956 -170.48012352 322.43695641 C-170.48072593 324.14447488 -170.48132713 325.85199336 -170.48192712 327.55951184 C-170.48283442 330.13289014 -170.48374309 332.70626845 -170.48465947 335.27964675 C-170.49308313 359.19046132 -170.49742873 383.10127388 -170.49325275 407.01208973 C-170.49309638 407.91257357 -170.49294 408.81305741 -170.49277889 409.74082863 C-170.49197316 414.3043535 -170.49112739 418.86787835 -170.49026559 423.4314032 C-170.4900945 424.33765855 -170.48992341 425.2439139 -170.48974714 426.17763154 C-170.48940048 428.01029729 -170.48905195 429.84296305 -170.48870155 431.6756288 C-170.48334478 460.18971976 -170.49127594 488.7037798 -170.50973511 517.21786499 C-170.53047241 549.28820828 -170.54117458 581.35853241 -170.53715962 613.42888278 C-170.5367643 616.85140431 -170.53640275 620.27392584 -170.53606224 623.69644737 C-170.53597151 624.5390965 -170.53588078 625.38174563 -170.5357873 626.24992958 C-170.53462364 638.94413749 -170.54125186 651.638326 -170.55187416 664.33252907 C-170.56394883 678.77671156 -170.565459 693.22085142 -170.55308399 707.66503457 C-170.54647687 715.73714136 -170.54803664 723.80914608 -170.56167251 731.88124462 C-170.57094153 737.92498371 -170.56434781 743.96860017 -170.55182471 750.01233777 C-170.54918421 752.44487455 -170.55152379 754.87742337 -170.55956057 757.3099483 C-170.70486921 804.60173309 -156.1019795 845.79328392 -123.17355347 880.26742554 C-122.36015503 881.13367554 -121.54675659 881.99992554 -120.70870972 882.89242554 C-100.9256318 903.41296017 -73.78622671 917.90699097 -46.29855347 925.01742554 C-45.5454187 925.21618286 -44.79228394 925.41494019 -44.0163269 925.61972046 C-27.57318265 929.63078858 -10.91649351 929.55868529 5.89173889 929.53485107 C8.40813522 929.53859311 10.9245304 929.54319682 13.44092375 929.54858172 C18.88709763 929.55822416 24.33322074 929.56173601 29.77940178 929.55966949 C37.87888061 929.55660382 45.97832051 929.56497798 54.07779174 929.57541875 C69.3904511 929.59470776 84.70309701 929.60038507 100.01576709 929.60153286 C111.84723512 929.6024539 123.67869793 929.60658068 135.51016426 929.61293411 C138.92266211 929.61472936 142.33515997 929.61650899 145.74765784 929.61828387 C147.02039884 929.61894701 147.02039884 929.61894701 148.31885179 929.61962355 C172.16892945 929.63192312 196.01900529 929.63982559 219.86908627 929.638937 C220.76733593 929.63890584 221.6655856 929.63887468 222.59105495 929.63884258 C227.14317549 929.63867638 231.69529602 929.6384783 236.24741655 929.63827316 C237.60337939 929.63821333 237.60337939 929.63821333 238.98673542 929.63815228 C240.81479248 929.63807141 242.64284954 929.63798781 244.4709066 929.6379015 C272.89778999 929.63667663 301.32462563 929.65168113 329.75149536 929.67904663 C361.73180404 929.70982064 393.71208135 929.72697591 425.69240576 929.72512019 C429.10773281 929.72497094 432.52305986 929.72487352 435.93838692 929.72481155 C437.19967908 929.72477659 437.19967908 929.72477659 438.48645188 929.72474092 C451.97134967 929.72467958 465.45620573 929.73740773 478.94109114 929.75467608 C492.5130385 929.77169548 506.08492534 929.77355733 519.65687751 929.76045744 C527.70109272 929.75311004 535.74512311 929.75659888 543.78931843 929.77634212 C549.82296011 929.78988885 555.85638859 929.78211761 561.89003319 929.76659568 C564.31056504 929.76354827 566.73111738 929.76707142 569.15162503 929.77831583 C589.69160366 929.86731626 610.98512532 928.66191203 630.45144653 921.51742554 C631.43105347 921.17380981 632.4106604 920.83019409 633.41995239 920.47616577 C641.92634811 917.40877778 649.9629195 913.71906594 657.82644653 909.26742554 C658.47436157 908.90503784 659.12227661 908.54265015 659.78982544 908.16928101 C668.03841979 903.51669399 675.66348897 898.50185157 682.82644653 892.26742554 C683.63339966 891.57004272 684.44035278 890.87265991 685.27175903 890.15414429 C700.72945448 876.51357605 712.82111154 862.24311213 722.82644653 844.26742554 C723.16917603 843.6612439 723.51190552 843.05506226 723.86502075 842.43051147 C728.46195035 834.19608804 731.98185073 825.67100939 735.07644653 816.76742554 C735.39363647 815.88643188 735.71082642 815.00543823 736.03762817 814.0977478 C742.47794471 794.70236322 743.41532427 774.51180296 743.32765198 754.25750732 C743.33155483 751.72396745 743.3372031 749.19042978 743.34442288 746.65689719 C743.35601683 741.19500571 743.35546726 735.73333512 743.34364319 730.27144814 C743.32610842 722.14898958 743.33181571 714.02665692 743.3418101 705.90419145 C743.3589234 691.39009848 743.35351165 676.87608151 743.33845291 662.3619902 C743.32536155 649.66113656 743.32021278 636.9603092 743.32277107 624.25944901 C743.32293149 623.41446092 743.3230919 622.56947284 743.32325718 621.69887906 C743.32392085 618.2681592 743.32462328 614.83743935 743.32538252 611.40671951 C743.33239405 579.27646921 743.31695689 547.1462651 743.29075906 515.01602656 C743.26764276 486.51419974 743.26225873 458.01242368 743.27249146 429.5105896 C743.27509379 422.20927622 743.2776789 414.90796284 743.28008938 407.6066494 C743.28053555 406.25803274 743.28053555 406.25803274 743.28099073 404.8821713 C743.28861697 381.01427418 743.28218338 357.14638117 743.27139336 333.27848589 C743.27024564 330.70828311 743.26910246 328.13808033 743.26796653 325.56787754 C743.26721129 323.86312275 743.26644565 322.15836796 743.26566953 320.45361318 C743.26002751 307.76407814 743.26133005 295.07455628 743.26589775 282.38502121 C743.27102084 267.94801276 743.265085 253.51105335 743.24500345 239.07405709 C743.23407164 231.00900589 743.23117291 222.94405119 743.24029199 214.87899718 C743.24617531 208.83723922 743.23618293 202.7956122 743.22029234 196.75386794 C743.2162777 194.32487249 743.21719689 191.89586226 743.2238112 189.4668725 C743.33982619 142.8381475 730.23570223 100.75372558 697.259552 66.74740601 C695.92709176 65.37136274 694.61232712 63.97824464 693.29910278 62.58383179 C682.86019569 51.7388732 670.91550831 43.55284672 657.82644653 36.26742554 C657.22026489 35.92469604 656.61408325 35.58196655 655.98953247 35.22885132 C647.79669112 30.65513524 639.30110583 27.12161148 630.45144653 24.01742554 C629.58721069 23.7002356 628.72297485 23.38304565 627.83255005 23.0562439 C607.87413622 16.38240275 586.48920205 15.6754805 565.65194702 15.76622009 C563.12493063 15.76231587 560.59791645 15.75666653 558.07090735 15.74944919 C552.62946575 15.73786837 547.18824602 15.73839172 541.74680901 15.75022888 C533.65479157 15.76778292 525.56290029 15.76204945 517.47087587 15.75206197 C503.01071953 15.73495954 488.55063954 15.74035324 474.09048487 15.75541916 C461.43800983 15.76851544 448.78556116 15.77365835 436.13307953 15.771101 C435.29100162 15.77094058 434.44892371 15.77078017 433.58132829 15.77061489 C430.16236496 15.76995122 426.74340164 15.76924879 423.32443833 15.76848955 C391.31275114 15.76147997 359.30111034 15.77690909 327.28943495 15.80311301 C298.89469379 15.8262331 270.50000358 15.83161157 242.10525513 15.82138062 C234.83008451 15.81877826 227.55491388 15.81619315 220.27974319 15.81378269 C219.38387473 15.81348524 218.48800627 15.8131878 217.56499028 15.81288134 C193.78269163 15.80525525 170.00039711 15.81168846 146.21810031 15.82247871 C143.65719215 15.82362643 141.09628399 15.8247696 138.53537583 15.82590554 C136.83680512 15.82666078 135.13823442 15.82742642 133.43966372 15.82820254 C120.79727803 15.83384411 108.15490556 15.83254236 95.51251984 15.82797432 C81.1304565 15.82285128 66.74844238 15.82878699 52.36639127 15.84886862 C44.3324347 15.85979997 36.298575 15.86269957 28.26461561 15.85358008 C22.24608827 15.84769645 16.22769237 15.85768973 10.20917878 15.87357973 C7.78966432 15.87759412 5.37013502 15.87667562 2.95062628 15.87006087 C-36.45991584 15.77161459 -73.63006058 24.56236928 -105.17355347 49.26742554 Z " fill="#000000" transform="translate(186.17355346679688,-0.267425537109375)"/>
<path d="M0 0 C0 135.3 0 270.6 0 410 C30.36 410 60.72 410 92 410 C92 423.86 92 437.72 92 452 C11.81 452 -68.38 452 -151 452 C-151 438.14 -151 424.28 -151 410 C-117.67 410 -84.34 410 -50 410 C-50 295.82 -50 181.64 -50 64 C-76.4 64 -102.8 64 -130 64 C-130 53.11 -130 42.22 -130 31 C-125.7925 30.13375 -121.585 29.2675 -117.25 28.375 C-105.28181934 25.84088021 -93.59514963 22.89841136 -82 19 C-81.22430664 18.74138184 -80.44861328 18.48276367 -79.64941406 18.21630859 C-25.79153287 0 -25.79153287 0 0 0 Z " fill="#000000" transform="translate(415,256)"/>
<path d="M0 0 C17.04887262 14.24370668 27.284557 34.68154802 29.55371094 56.69555664 C31.56248239 81.55785105 27.01480904 104.58151404 10.75 124.125 C10.15960937 124.888125 9.56921875 125.65125 8.9609375 126.4375 C-3.87451854 142.16776102 -24.74981961 151.72196647 -44.6875 153.875 C-46.54053749 153.9805014 -48.39502277 154.06224705 -50.25 154.125 C-51.94189453 154.21974609 -51.94189453 154.21974609 -53.66796875 154.31640625 C-76.51534372 155.06273778 -97.75804599 146.07352972 -114.37866211 130.515625 C-130.13536579 115.16329084 -139.16499526 94.10232759 -139.62304688 72.10400391 C-139.63975784 48.75460817 -134.28460145 28.30970841 -119.25 10.125 C-118.486875 9.114375 -117.72375 8.10375 -116.9375 7.0625 C-105.29168737 -5.66664404 -90.5858266 -12.50817189 -74.25 -16.875 C-73.43015625 -17.12121094 -72.6103125 -17.36742187 -71.765625 -17.62109375 C-47.20938221 -24.31405466 -19.43232016 -14.88433034 0 0 Z " fill="#010101" transform="translate(715.25,255.875)"/>
<path d="M0 0 C12.25982605 9.72393941 18.97059224 22.23185415 22.125 37.375 C22.51105573 41.22113754 22.54691603 45.01224685 22.5 48.875 C22.51160156 49.83019531 22.52320313 50.78539062 22.53515625 51.76953125 C22.47210767 67.30049834 16.26947974 82.14110383 5.421875 93.26171875 C-5.46597882 103.27928494 -18.38001301 107.14171513 -32.94873047 106.89624023 C-46.9361537 106.27233465 -58.73287762 100.93515012 -68.5625 90.9375 C-72.15866249 86.70748153 -74.80528364 82.23556269 -77.3125 77.3125 C-77.6427417 76.66418213 -77.9729834 76.01586426 -78.31323242 75.34790039 C-85.27373759 60.83121217 -85.32534688 41.68266526 -80.0715332 26.61694336 C-74.76960739 12.80503584 -65.65958464 1.54783856 -52.1875 -4.9140625 C-35.11976129 -11.97482345 -15.38373739 -10.35525813 0 0 Z " fill="#FDFDFD" transform="translate(690.875,274.625)"/>
</svg>
