<?xml version="1.0" standalone="no"?><!DOCTYPE svg PUBLIC "-//W3C//DTD SVG 1.1//EN" "http://www.w3.org/Graphics/SVG/1.1/DTD/svg11.dtd"><svg t="1641281825876" class="icon" viewBox="0 0 1024 1024" version="1.1" xmlns="http://www.w3.org/2000/svg" p-id="2541" xmlns:xlink="http://www.w3.org/1999/xlink" width="200" height="200"><defs><style type="text/css"></style></defs><path d="M0 0h1024v1024H0z" fill="#000000" opacity=".01" p-id="2542"></path><path d="M553.312 173.488l8 0.688a712.672 712.672 0 0 1 18.56 1.92l2.08 0.272c2.576 0.304 5.136 0.64 7.68 0.96l2.208 0.32c2.096 0.256 4.176 0.56 6.272 0.848l4.832 0.736c1.68 0.24 3.36 0.496 5.024 0.768l4.32 0.704c2.144 0.352 4.288 0.704 6.432 1.088l1.328 0.24c2.624 0.448 5.248 0.928 7.872 1.424l1.472 0.288c5.44 1.024 10.848 2.128 16.24 3.28l1.248 0.288c2.432 0.512 4.848 1.04 7.264 1.6l2.304 0.528 7.84 1.856 1.552 0.4a538 538 0 0 1 16.688 4.32 721.632 721.632 0 0 1 48.72 15.152l2 0.72c2.928 1.024 5.84 2.08 8.752 3.168l0.912 0.336c13.76 5.12 27.36 10.656 40.768 16.608l18.656 8.288-0.128 0.272a708.752 708.752 0 0 1 137.12 86.352l16.24 13.04-35.296 43.76c-108.64 134.208-234.8 285.04-378.528 452.48l-27.936 32.464-17.536 38.464-18.048-38.528-36.272-44.48C261.6 602.72 139.936 451.12 76.784 369.12l-2.832-3.68-26.4-34.768 16.336-12.576a708.88 708.88 0 0 1 118.016-73.68l-0.144-0.288 17.28-7.92c13.856-6.4 27.904-12.336 42.144-17.824l0.528-0.192c2.112-0.832 4.24-1.632 6.352-2.432l4.848-1.76a696.912 696.912 0 0 1 62.656-19.632l2.464-0.64a610.992 610.992 0 0 1 25.904-6.176l0.56-0.128a704.576 704.576 0 0 1 14.848-3.056l4.144-0.8c2.032-0.384 4.08-0.768 6.128-1.12l4.048-0.72c2.112-0.368 4.224-0.736 6.336-1.072l2.416-0.4c2.496-0.4 5.008-0.8 7.52-1.168l2.784-0.416 6.784-0.96 3.52-0.464a690.224 690.224 0 0 1 58.608-5.232 507.616 507.616 0 0 1 8.544-0.352A686.016 686.016 0 0 1 496 171.2l-10.208 0.08a721.12 721.12 0 0 1 65.488 2.048l2.032 0.16zM496 212.8c-4.976 0-9.952 0.048-14.928 0.16l4.8-0.08c-3.728 0.048-7.44 0.144-11.152 0.256l6.352-0.16c-3.6 0.064-7.2 0.16-10.768 0.32l4.416-0.16c-3.072 0.096-6.144 0.208-9.216 0.352l4.8-0.208c-3.68 0.16-7.376 0.32-11.04 0.512l6.24-0.32c-3.872 0.192-7.744 0.4-11.6 0.64l5.344-0.32c-3.264 0.176-6.512 0.384-9.76 0.608l4.416-0.288c-3.312 0.208-6.608 0.432-9.92 0.688l5.504-0.4c-3.536 0.24-7.072 0.512-10.592 0.8l5.088-0.4a670.576 670.576 0 0 0-35.568 3.696l4.72-0.592c-3.008 0.368-6 0.752-8.992 1.168l4.272-0.576c-3.6 0.48-7.2 0.96-10.784 1.504l6.512-0.928c-3.6 0.496-7.184 1.024-10.752 1.568l4.24-0.64c-3.216 0.48-6.432 0.96-9.632 1.488l5.392-0.848a666.4 666.4 0 0 0-10.832 1.76l5.44-0.912-9.6 1.632 4.16-0.704c-3.328 0.56-6.64 1.152-9.952 1.76l5.808-1.056c-4.064 0.72-8.112 1.488-12.16 2.272l6.352-1.2c-3.248 0.608-6.496 1.232-9.744 1.888l3.408-0.688c-2.816 0.56-5.6 1.12-8.416 1.712l5.008-1.024a664.064 664.064 0 0 0-19.84 4.32l3.68-0.832c-2.928 0.672-5.872 1.36-8.8 2.08l5.12-1.232c-3.168 0.736-6.32 1.504-9.472 2.288l4.336-1.056c-3.856 0.928-7.712 1.92-11.552 2.912l7.216-1.856c-3.072 0.768-6.144 1.568-9.2 2.368l1.984-0.512c-2.72 0.72-5.44 1.44-8.144 2.192l6.16-1.68c-3.632 0.96-7.248 1.968-10.88 2.992l4.72-1.312a662.24 662.24 0 0 0-10.656 3.04l5.952-1.728c-3.376 0.96-6.752 1.936-10.112 2.96l4.16-1.248c-2.864 0.848-5.712 1.696-8.544 2.576l4.384-1.328c-4.032 1.216-8.064 2.464-12.064 3.76l7.68-2.432c-3.408 1.056-6.8 2.128-10.192 3.232l2.512-0.8a661.504 661.504 0 0 0-24.144 8.272l1.744-0.624c-3.296 1.2-6.592 2.416-9.872 3.664l8.128-3.04c-6.672 2.448-13.312 4.992-19.904 7.632l-8.736 3.6 3.216 6.528c22.896 46.704 63.888 132.688 122.992 258.08l130.992 278.944 70.704-155.088c55.504-121.632 100.144-219.04 133.92-292.272l46.032-99.12-9.84-3.888a662.208 662.208 0 0 0-11.216-4.24l1.12 0.432a661.696 661.696 0 0 0-22.944-7.984l3.136 1.04a661.408 661.408 0 0 0-10.464-3.376l7.328 2.336a661.968 661.968 0 0 0-9.92-3.152l2.592 0.8c-3.36-1.04-6.72-2.08-10.08-3.072l7.488 2.272a662.16 662.16 0 0 0-19.952-5.824l9.04 2.56c-4.352-1.28-8.72-2.496-13.12-3.68l4.08 1.12c-3.248-0.896-6.48-1.76-9.744-2.608l5.664 1.504a662.88 662.88 0 0 0-10.192-2.656l4.528 1.152a661.952 661.952 0 0 0-10.784-2.704l6.256 1.552c-3.28-0.832-6.56-1.632-9.856-2.4l3.6 0.848a662.368 662.368 0 0 0-9.28-2.176l5.68 1.328a663.808 663.808 0 0 0-10.992-2.48l5.296 1.152c-3.104-0.704-6.24-1.376-9.36-2.032l4.064 0.88c-3.36-0.736-6.72-1.44-10.112-2.128l6.048 1.248a663.392 663.392 0 0 0-7.968-1.632l1.92 0.384a665.584 665.584 0 0 0-28.96-5.168l3.136 0.496a667.04 667.04 0 0 0-11.008-1.664l7.856 1.168a666.4 666.4 0 0 0-9.392-1.392l1.536 0.224c-2.816-0.4-5.616-0.8-8.432-1.152l6.88 0.928c-4.16-0.592-8.32-1.136-12.512-1.648l5.632 0.72a668.816 668.816 0 0 0-9.792-1.216l4.16 0.48a669.12 669.12 0 0 0-12.864-1.44l8.704 0.96a669.888 669.888 0 0 0-10.24-1.088l1.536 0.144a670.784 670.784 0 0 0-11.808-1.104l10.288 0.96a671.36 671.36 0 0 0-15.888-1.408l5.6 0.448a672.384 672.384 0 0 0-9.808-0.752l4.208 0.32c-3.6-0.288-7.2-0.528-10.816-0.752l6.608 0.432a674 674 0 0 0-10.48-0.64l3.872 0.208a674.48 674.48 0 0 0-9.488-0.48l5.616 0.256a675.872 675.872 0 0 0-11.584-0.512l5.968 0.24c-3.376-0.16-6.768-0.288-10.16-0.384l-6.608-0.16-4.336-0.08z m288.464 65.392l-0.08 0.16a31438.944 31438.944 0 0 0-105.92 229.392l-102.24 224.128c116.384-136.608 220.304-261.376 311.712-374.32l8.864-10.992-5.408-4.048a666.144 666.144 0 0 0-106.928-64.32z m-583.808 3.36l-7.84 3.936a666.48 666.48 0 0 0-81.056 48.992l-5.888 4.208 25.504 32.928c50.272 64.416 126.912 160.16 229.872 287.216l44.144 54.304C298.88 486.128 230.592 342.16 200.64 281.536z" fill="#A8ADBB" p-id="2543"></path></svg>