<?xml version="1.0" standalone="no"?>
<!DOCTYPE svg PUBLIC "-//W3C//DTD SVG 20010904//EN"
 "http://www.w3.org/TR/2001/REC-SVG-20010904/DTD/svg10.dtd">
<svg version="1.0" xmlns="http://www.w3.org/2000/svg"
 width="400.000000pt" height="400.000000pt" viewBox="0 0 400.000000 400.000000"
 preserveAspectRatio="xMidYMid meet">

	<g transform="translate(0.000000,400.000000) scale(0.100000,-0.100000)"
	fill="#000000" stroke="none">
		<path d="M2915 3748 c-11 -6 -47 -39 -80 -72 -168 -170 -555 -546 -562 -546
-5 0 -103 93 -218 206 -265 260 -317 304 -356 304 -63 0 -31 29 -842 -774
l-439 -434 126 -123 c69 -67 129 -131 132 -142 5 -15 -57 -82 -298 -321 -166
-167 -313 -317 -325 -334 -23 -32 -31 -72 -14 -72 5 0 12 -9 16 -20 3 -11 20
-33 36 -50 26 -25 38 -30 80 -30 57 0 33 -21 462 403 127 125 236 227 243 227
16 0 594 -570 594 -586 0 -6 -139 -150 -308 -321 -175 -175 -314 -324 -322
-342 -11 -27 -11 -39 0 -72 20 -61 60 -89 126 -89 l54 0 106 102 c59 57 184
180 278 273 94 94 193 190 219 214 l48 44 49 -48 c27 -27 52 -46 55 -43 4 3 1
50 -5 105 -19 171 14 382 84 538 84 186 126 251 248 380 168 181 453 326 692
355 49 6 93 13 97 16 5 3 -51 62 -123 132 -108 106 -129 131 -121 145 5 10
117 127 249 260 131 133 268 273 303 310 62 66 63 69 57 109 -10 61 -33 103
-90 166 -54 58 -133 115 -178 125 -14 4 -32 9 -40 12 -7 2 -22 -1 -33 -7z"/>
		<path d="M2760 2363 c-40 -7 -138 -33 -168 -44 -15 -6 -29 -11 -32 -11 -21 -2
-125 -57 -193 -101 -316 -206 -492 -547 -474 -921 22 -468 326 -843 787 -968
72 -19 109 -23 245 -23 192 0 283 20 440 94 287 137 501 398 568 697 53 230
35 447 -54 660 -86 207 -284 415 -495 522 -23 12 -44 18 -48 15 -3 -4 -6 -2
-6 4 0 12 -106 47 -206 68 -65 14 -301 19 -364 8z m198 -75 c14 -14 16 -48 3
-48 -16 0 -61 41 -56 51 9 13 39 11 53 -3z m-34 -42 c29 -24 28 -46 -1 -46
-19 0 -42 28 -43 53 0 23 9 21 44 -7z m153 -116 c204 -42 397 -160 493 -303
14 -20 28 -37 33 -37 4 0 7 -7 7 -15 0 -8 4 -15 8 -15 10 0 64 -117 85 -185
37 -118 47 -261 26 -379 l-10 -61 -309 3 -308 3 -6 23 c-3 12 -19 37 -37 55
-20 21 -28 38 -24 49 3 9 9 42 11 72 3 30 8 59 12 65 9 14 70 387 62 378 -4
-5 -38 -84 -76 -178 -37 -93 -73 -175 -80 -182 -6 -6 -22 -41 -34 -76 -19 -55
-27 -66 -50 -70 -39 -8 -107 -67 -122 -104 l-12 -33 -307 0 -306 0 -6 28 c-26
130 -15 295 28 421 43 128 93 209 185 302 113 113 186 158 365 224 11 4 38 10
60 12 21 2 45 7 51 11 19 11 196 5 261 -8z m850 -782 c-3 -8 -6 -5 -6 6 -1 11
2 17 5 13 3 -3 4 -12 1 -19z m-1907 -65 c-1 -10 -47 -63 -55 -63 -10 0 -5 46
7 58 13 13 48 16 48 5z m1825 -25 c-12 -53 -28 -65 -40 -28 -8 24 11 60 31 60
12 0 14 -7 9 -32z m43 -10 c3 -24 -22 -57 -34 -45 -4 3 -3 22 0 42 8 41 29 43
34 3z m-1838 3 c0 -25 -26 -51 -51 -51 -26 0 -24 9 8 42 31 33 43 35 43 9z
m388 -334 c2 -9 -2 -17 -8 -17 -6 0 -8 5 -4 11 3 6 0 16 -7 21 -12 8 -11 9 1
5 8 -2 16 -11 18 -20z m502 -437 c0 -5 -2 -10 -4 -10 -3 0 -8 5 -11 10 -3 6
-1 10 4 10 6 0 11 -4 11 -10z m12 -47 c10 -9 18 -24 18 -34 0 -16 -3 -17 -27
-7 -46 20 -55 29 -42 44 15 18 28 18 51 -3z m-27 -49 c33 -14 36 -17 23 -30
-20 -21 -68 -2 -68 26 0 24 -2 24 45 4z"/>
		<path d="M2756 1973 c-153 -32 -270 -98 -394 -223 -38 -39 -92 -109 -92 -120
0 -4 26 -23 58 -42 55 -33 60 -34 70 -17 10 15 6 21 -24 39 l-35 22 48 57 c26
31 51 57 54 59 4 2 31 21 60 43 l54 40 25 -31 c23 -28 27 -30 39 -16 11 13 11
20 -4 42 -14 22 -15 28 -4 35 30 19 171 59 233 65 l66 7 0 -37 c0 -25 4 -36
15 -36 11 0 15 11 15 36 l0 37 66 -7 c62 -6 203 -46 233 -65 12 -8 13 -14 2
-37 -10 -23 -10 -30 2 -42 13 -12 17 -11 32 12 22 33 30 33 74 -1 19 -16 40
-30 47 -33 6 -3 35 -32 63 -65 l51 -60 -30 -25 c-26 -22 -29 -27 -18 -42 12
-15 18 -13 71 21 l59 38 -63 78 c-35 43 -76 83 -93 90 -17 7 -29 17 -27 22 5
13 -98 80 -176 113 -141 59 -325 76 -477 43z m-316 -193 c0 -5 -5 -10 -11 -10
-5 0 -7 5 -4 10 3 6 8 10 11 10 2 0 4 -4 4 -10z"/>
	</g>
</svg>
