<?xml version="1.0" standalone="no"?><!DOCTYPE svg PUBLIC "-//W3C//DTD SVG 1.1//EN" "http://www.w3.org/Graphics/SVG/1.1/DTD/svg11.dtd"><svg t="1640591611891" class="icon" viewBox="0 0 1024 1024" version="1.1" xmlns="http://www.w3.org/2000/svg" p-id="3919" xmlns:xlink="http://www.w3.org/1999/xlink" width="200" height="200"><defs><style type="text/css"></style></defs><path d="M746.057143 219.428571H402.285714c-32.914286 0-58.514286 25.6-58.514285 58.514286V694.857143c0 7.314286-3.657143 18.285714-10.971429 25.6-7.314286 7.314286-18.285714 14.628571-29.257143 14.628571-21.942857 0-40.228571-18.285714-40.228571-40.228571v-204.8c0-7.314286 7.314286-10.971429 10.971428-10.971429h43.885715c10.971429 0 21.942857-10.971429 21.942857-21.942857s-10.971429-21.942857-21.942857-21.942857H277.942857c-32.914286 0-58.514286 25.6-58.514286 58.514286V694.857143c0 47.542857 36.571429 84.114286 84.114286 84.114286h442.514286c32.914286 0 58.514286-25.6 58.514286-58.514286V277.942857c0-32.914286-25.6-58.514286-58.514286-58.514286z m14.628571 504.685715c0 7.314286-7.314286 10.971429-10.971428 10.971428H376.685714c7.314286-14.628571 10.971429-29.257143 10.971429-40.228571v-7.314286-25.6V277.942857c0-7.314286 7.314286-10.971429 10.971428-10.971428h343.771429c7.314286 0 10.971429 7.314286 10.971429 10.971428v446.171429z" p-id="3920"></path><path d="M705.828571 365.714286h-226.742857c-10.971429 0-21.942857 10.971429-21.942857 21.942857s10.971429 21.942857 21.942857 21.942857h226.742857c10.971429 0 21.942857-10.971429 21.942858-21.942857s-10.971429-21.942857-21.942858-21.942857M702.171429 457.142857h-157.257143c-10.971429 0-18.285714 10.971429-18.285715 21.942857s7.314286 21.942857 18.285715 21.942857h157.257143c10.971429 0 18.285714-10.971429 18.285714-21.942857s-7.314286-21.942857-18.285714-21.942857M698.514286 548.571429h-98.742857c-7.314286 0-14.628571 10.971429-14.628572 21.942857s7.314286 21.942857 14.628572 21.942857h98.742857c7.314286 0 14.628571-10.971429 14.628571-21.942857s-7.314286-21.942857-14.628571-21.942857" p-id="3921"></path></svg>