<?xml version="1.0" standalone="no"?><!DOCTYPE svg PUBLIC "-//W3C//DTD SVG 1.1//EN" "http://www.w3.org/Graphics/SVG/1.1/DTD/svg11.dtd"><svg t="1640657547176" class="icon" viewBox="0 0 1024 1024" version="1.1" xmlns="http://www.w3.org/2000/svg" p-id="5773" xmlns:xlink="http://www.w3.org/1999/xlink" width="200" height="200"><defs><style type="text/css"></style></defs><path d="M256.6 543.9 128.7 543.9c-35.2 0-63.8 28.6-63.8 63.9l0 191.6c0 35.2 28.6 63.9 63.8 63.9l127.9 0c35.2 0 63.8-28.6 63.8-63.9L320.4 607.8C320.4 572.6 291.8 543.9 256.6 543.9zM895.3 160.7 767.4 160.7c-35.2 0-63.8 28.6-63.8 63.9l0 574.8c0 35.3 28.6 63.9 63.8 63.9l127.9 0c35.2 0 63.8-28.6 63.8-63.9l0-574.8C959.1 189.4 930.5 160.7 895.3 160.7zM927.1 799.4c0 17.6-14.3 32-31.9 32L767.4 831.4c-17.6 0-31.9-14.3-31.9-32L735.5 224.6c0-17.6 14.3-32 31.9-32l127.9 0c17.6 0 31.9 14.3 31.9 32L927.2 799.4zM575.9 352.3 448.1 352.3c-35.2 0-63.8 28.6-63.8 63.9l0 383.1c0 35.4 28.6 63.9 63.8 63.9l127.9 0c35.2 0 63.8-28.6 63.8-63.9L639.8 416.3C639.7 380.9 611.2 352.3 575.9 352.3zM607.8 799.3c0 17.7-14.3 32-31.9 32L448.1 831.3c-17.6 0-31.9-14.4-31.9-32l0-383.1c0-17.7 14.3-32 31.9-32l127.9 0c17.6 0 31.9 14.4 31.9 32L607.8 799.3z" p-id="5774"></path></svg>