<?xml version="1.0" standalone="no"?><!DOCTYPE svg PUBLIC "-//W3C//DTD SVG 1.1//EN" "http://www.w3.org/Graphics/SVG/1.1/DTD/svg11.dtd"><svg t="1640657555052" class="icon" viewBox="0 0 1024 1024" version="1.1" xmlns="http://www.w3.org/2000/svg" p-id="5901" xmlns:xlink="http://www.w3.org/1999/xlink" width="200" height="200"><defs><style type="text/css"></style></defs><path d="M256.6 543.9H128.7c-35.2 0-63.8 28.6-63.8 63.9v191.6c0 35.2 28.6 63.9 63.8 63.9h127.9c35.2 0 63.8-28.6 63.8-63.9V607.8c0-35.2-28.6-63.9-63.8-63.9z m638.7-383.2H767.4c-35.2 0-63.8 28.6-63.8 63.9v574.8c0 35.3 28.6 63.9 63.8 63.9h127.9c35.2 0 63.8-28.6 63.8-63.9V224.6c0-35.2-28.6-63.9-63.8-63.9z m31.8 638.7c0 17.6-14.3 32-31.9 32H767.4c-17.6 0-31.9-14.3-31.9-32V224.6c0-17.6 14.3-32 31.9-32h127.9c17.6 0 31.9 14.3 31.9 32v574.8zM575.9 352.3H448.1c-35.2 0-63.8 28.6-63.8 63.9v383.1c0 35.4 28.6 63.9 63.8 63.9H576c35.2 0 63.8-28.6 63.8-63.9v-383c-0.1-35.4-28.6-64-63.9-64z" p-id="5902"></path></svg>