<?xml version="1.0" standalone="no"?><!DOCTYPE svg PUBLIC "-//W3C//DTD SVG 1.1//EN" "http://www.w3.org/Graphics/SVG/1.1/DTD/svg11.dtd"><svg t="1640590469407" class="icon" viewBox="0 0 1024 1024" version="1.1" xmlns="http://www.w3.org/2000/svg" p-id="24565" xmlns:xlink="http://www.w3.org/1999/xlink" width="200" height="200"><defs><style type="text/css"></style></defs><path d="M875.595 108.005c0 0.002 0 0.004 0 0.005 0 22.311 18.087 40.398 40.398 40.398 22.311 0 40.398-18.087 40.398-40.398 0-0.002 0-0.004 0-0.006 0-0.001 0-0.003 0-0.005 0-22.311-18.087-40.398-40.398-40.398-22.311 0-40.398 18.087-40.398 40.398 0 0.002 0 0.004 0 0.006z" fill="" p-id="24566"></path><path d="M875.595 269.603c0 0.002 0 0.004 0 0.005 0 22.311 18.087 40.398 40.398 40.398 22.311 0 40.398-18.087 40.398-40.398 0-0.002 0-0.004 0-0.006 0-0.001 0-0.003 0-0.005 0-22.311-18.087-40.398-40.398-40.398-22.311 0-40.398 18.087-40.398 40.398s0 0.004 0 0.006z" fill="" p-id="24567"></path><path d="M875.595 431.202c0 0.002 0 0.004 0 0.005 0 22.311 18.087 40.398 40.398 40.398 22.311 0 40.398-18.087 40.398-40.398 0-0.002 0-0.004 0-0.006 0-0.001 0-0.003 0-0.005 0-22.311-18.087-40.398-40.398-40.398-22.311 0-40.398 18.087-40.398 40.398s0 0.004 0 0.006z" fill="" p-id="24568"></path><path d="M875.595 592.798c0 0.002 0 0.004 0 0.005 0 22.311 18.087 40.398 40.398 40.398 22.311 0 40.398-18.087 40.398-40.398 0-0.002 0-0.004 0-0.006 0-0.001 0-0.003 0-0.005 0-22.311-18.087-40.398-40.398-40.398-22.311 0-40.398 18.087-40.398 40.398s0 0.004 0 0.006z" fill="" p-id="24569"></path><path d="M875.595 754.397c0 0.002 0 0.004 0 0.005 0 22.311 18.087 40.398 40.398 40.398 22.311 0 40.398-18.087 40.398-40.398 0-0.002 0-0.004 0-0.006 0-0.001 0-0.003 0-0.005 0-22.311-18.087-40.398-40.398-40.398-22.311 0-40.398 18.087-40.398 40.398s0 0.004 0 0.006z" fill="" p-id="24570"></path><path d="M875.595 915.995c0 0.002 0 0.004 0 0.005 0 22.311 18.087 40.398 40.398 40.398 22.311 0 40.398-18.087 40.398-40.398 0-0.002 0-0.004 0-0.006 0-0.001 0-0.003 0-0.005 0-22.311-18.087-40.398-40.398-40.398-22.311 0-40.398 18.087-40.398 40.398s0 0.004 0 0.006z" fill="" p-id="24571"></path><path d="M713.998 108.005c0 0 0 0 0 0 0 22.311 18.087 40.398 40.398 40.398 22.311 0 40.398-18.087 40.398-40.398 0 0 0 0 0 0 0 0 0 0 0 0 0-22.311-18.087-40.398-40.398-40.398-22.311 0-40.398 18.087-40.398 40.398s0 0 0 0z" fill="" p-id="24572"></path><path d="M713.998 269.603c0 0 0 0 0 0 0 22.311 18.087 40.398 40.398 40.398 22.311 0 40.398-18.087 40.398-40.398 0 0 0 0 0 0 0 0 0 0 0 0 0-22.311-18.087-40.398-40.398-40.398-22.311 0-40.398 18.087-40.398 40.398s0 0 0 0z" fill="" p-id="24573"></path><path d="M713.998 431.202c0 0 0 0 0 0 0 22.311 18.087 40.398 40.398 40.398 22.311 0 40.398-18.087 40.398-40.398 0 0 0 0 0 0 0 0 0 0 0 0 0-22.311-18.087-40.398-40.398-40.398-22.311 0-40.398 18.087-40.398 40.398s0 0 0 0z" fill="" p-id="24574"></path><path d="M713.998 592.798c0 0 0 0 0 0 0 22.311 18.087 40.398 40.398 40.398 22.311 0 40.398-18.087 40.398-40.398 0 0 0 0 0 0 0 0 0 0 0 0 0-22.311-18.087-40.398-40.398-40.398-22.311 0-40.398 18.087-40.398 40.398s0 0 0 0z" fill="" p-id="24575"></path><path d="M713.998 754.397c0 0 0 0 0 0 0 22.311 18.087 40.398 40.398 40.398 22.311 0 40.398-18.087 40.398-40.398 0 0 0 0 0 0 0 0 0 0 0 0 0-22.311-18.087-40.398-40.398-40.398-22.311 0-40.398 18.087-40.398 40.398s0 0 0 0z" fill="" p-id="24576"></path><path d="M713.998 915.995c0 0 0 0 0 0 0 22.311 18.087 40.398 40.398 40.398 22.311 0 40.398-18.087 40.398-40.398 0 0 0 0 0 0 0 0 0 0 0 0 0-22.311-18.087-40.398-40.398-40.398-22.311 0-40.398 18.087-40.398 40.398s0 0 0 0z" fill="" p-id="24577"></path><path d="M552.398 108.005c0 0 0 0 0 0 0 22.311 18.087 40.398 40.398 40.398 22.311 0 40.398-18.087 40.398-40.398 0 0 0 0 0 0 0 0 0 0 0 0 0-22.311-18.087-40.398-40.398-40.398-22.311 0-40.398 18.087-40.398 40.398s0 0 0 0z" fill="" p-id="24578"></path><path d="M552.398 269.603c0 0 0 0 0 0 0 22.311 18.087 40.398 40.398 40.398 22.311 0 40.398-18.087 40.398-40.398 0 0 0 0 0 0 0 0 0 0 0 0 0-22.311-18.087-40.398-40.398-40.398-22.311 0-40.398 18.087-40.398 40.398s0 0 0 0z" fill="" p-id="24579"></path><path d="M552.398 431.202c0 0 0 0 0 0 0 22.311 18.087 40.398 40.398 40.398 22.311 0 40.398-18.087 40.398-40.398 0 0 0 0 0 0 0 0 0 0 0 0 0-22.311-18.087-40.398-40.398-40.398-22.311 0-40.398 18.087-40.398 40.398s0 0 0 0z" fill="" p-id="24580"></path><path d="M552.398 592.798c0 0 0 0 0 0 0 22.311 18.087 40.398 40.398 40.398 22.311 0 40.398-18.087 40.398-40.398 0 0 0 0 0 0 0 0 0 0 0 0 0-22.311-18.087-40.398-40.398-40.398-22.311 0-40.398 18.087-40.398 40.398s0 0 0 0z" fill="" p-id="24581"></path><path d="M552.398 754.397c0 0 0 0 0 0 0 22.311 18.087 40.398 40.398 40.398 22.311 0 40.398-18.087 40.398-40.398 0 0 0 0 0 0 0 0 0 0 0 0 0-22.311-18.087-40.398-40.398-40.398-22.311 0-40.398 18.087-40.398 40.398s0 0 0 0z" fill="" p-id="24582"></path><path d="M552.398 915.995c0 0 0 0 0 0 0 22.311 18.087 40.398 40.398 40.398 22.311 0 40.398-18.087 40.398-40.398 0 0 0 0 0 0 0 0 0 0 0 0 0-22.311-18.087-40.398-40.398-40.398-22.311 0-40.398 18.087-40.398 40.398s0 0 0 0z" fill="" p-id="24583"></path><path d="M390.803 108.005c0 0 0 0 0 0 0 22.311 18.087 40.398 40.398 40.398 22.311 0 40.398-18.087 40.398-40.398 0 0 0 0 0 0 0 0 0 0 0 0 0-22.311-18.087-40.398-40.398-40.398-22.311 0-40.398 18.087-40.398 40.398s0 0 0 0z" fill="" p-id="24584"></path><path d="M390.803 269.603c0 0 0 0 0 0 0 22.311 18.087 40.398 40.398 40.398 22.311 0 40.398-18.087 40.398-40.398 0 0 0 0 0 0 0 0 0 0 0 0 0-22.311-18.087-40.398-40.398-40.398-22.311 0-40.398 18.087-40.398 40.398s0 0 0 0z" fill="" p-id="24585"></path><path d="M390.803 431.202c0 0 0 0 0 0 0 22.311 18.087 40.398 40.398 40.398 22.311 0 40.398-18.087 40.398-40.398 0 0 0 0 0 0 0 0 0 0 0 0 0-22.311-18.087-40.398-40.398-40.398-22.311 0-40.398 18.087-40.398 40.398s0 0 0 0z" fill="" p-id="24586"></path><path d="M390.803 592.798c0 0 0 0 0 0 0 22.311 18.087 40.398 40.398 40.398 22.311 0 40.398-18.087 40.398-40.398 0 0 0 0 0 0 0 0 0 0 0 0 0-22.311-18.087-40.398-40.398-40.398-22.311 0-40.398 18.087-40.398 40.398s0 0 0 0z" fill="" p-id="24587"></path><path d="M390.803 754.397c0 0 0 0 0 0 0 22.311 18.087 40.398 40.398 40.398 22.311 0 40.398-18.087 40.398-40.398 0 0 0 0 0 0 0 0 0 0 0 0 0-22.311-18.087-40.398-40.398-40.398-22.311 0-40.398 18.087-40.398 40.398s0 0 0 0z" fill="" p-id="24588"></path><path d="M390.803 915.995c0 0 0 0 0 0 0 22.311 18.087 40.398 40.398 40.398 22.311 0 40.398-18.087 40.398-40.398 0 0 0 0 0 0 0 0 0 0 0 0 0-22.311-18.087-40.398-40.398-40.398-22.311 0-40.398 18.087-40.398 40.398s0 0 0 0z" fill="" p-id="24589"></path><path d="M229.204 108.005c0 22.311 18.087 40.398 40.398 40.398s40.398-18.087 40.398-40.398c0 0 0 0 0 0 0-22.311-18.087-40.398-40.398-40.398-22.311 0-40.398 18.087-40.398 40.398 0 0 0 0 0 0z" fill="" p-id="24590"></path><path d="M229.204 269.603c0 22.311 18.087 40.398 40.398 40.398s40.398-18.087 40.398-40.398c0 0 0 0 0 0 0-22.311-18.087-40.398-40.398-40.398-22.311 0-40.398 18.087-40.398 40.398 0 0 0 0 0 0z" fill="" p-id="24591"></path><path d="M229.204 431.202c0 22.311 18.087 40.398 40.398 40.398s40.398-18.087 40.398-40.398c0 0 0 0 0 0 0-22.311-18.087-40.398-40.398-40.398-22.311 0-40.398 18.087-40.398 40.398 0 0 0 0 0 0z" fill="" p-id="24592"></path><path d="M229.204 592.798c0 22.311 18.087 40.398 40.398 40.398s40.398-18.087 40.398-40.398c0 0 0 0 0 0 0-22.311-18.087-40.398-40.398-40.398-22.311 0-40.398 18.087-40.398 40.398 0 0 0 0 0 0z" fill="" p-id="24593"></path><path d="M229.204 754.397c0 22.311 18.087 40.398 40.398 40.398s40.398-18.087 40.398-40.398c0 0 0 0 0 0 0-22.311-18.087-40.398-40.398-40.398-22.311 0-40.398 18.087-40.398 40.398 0 0 0 0 0 0z" fill="" p-id="24594"></path><path d="M229.204 915.995c0 22.311 18.087 40.398 40.398 40.398s40.398-18.087 40.398-40.398c0 0 0 0 0 0 0-22.311-18.087-40.398-40.398-40.398-22.311 0-40.398 18.087-40.398 40.398 0 0 0 0 0 0z" fill="" p-id="24595"></path><path d="M67.605 108.005c0 0.002 0 0.004 0 0.005 0 22.311 18.087 40.398 40.398 40.398 22.311 0 40.398-18.087 40.398-40.398 0-0.002 0-0.004 0-0.006 0-0.001 0-0.003 0-0.005 0-22.311-18.087-40.398-40.398-40.398-22.311 0-40.398 18.087-40.398 40.398 0 0.002 0 0.004 0 0.006z" fill="" p-id="24596"></path><path d="M67.605 269.603c0 0.002 0 0.004 0 0.005 0 22.311 18.087 40.398 40.398 40.398 22.311 0 40.398-18.087 40.398-40.398 0-0.002 0-0.004 0-0.006 0-0.001 0-0.003 0-0.005 0-22.311-18.087-40.398-40.398-40.398-22.311 0-40.398 18.087-40.398 40.398s0 0.004 0 0.006z" fill="" p-id="24597"></path><path d="M67.605 431.202c0 0.002 0 0.004 0 0.005 0 22.311 18.087 40.398 40.398 40.398 22.311 0 40.398-18.087 40.398-40.398 0-0.002 0-0.004 0-0.006 0-0.001 0-0.003 0-0.005 0-22.311-18.087-40.398-40.398-40.398-22.311 0-40.398 18.087-40.398 40.398s0 0.004 0 0.006z" fill="" p-id="24598"></path><path d="M67.605 592.798c0 0.002 0 0.004 0 0.005 0 22.311 18.087 40.398 40.398 40.398 22.311 0 40.398-18.087 40.398-40.398 0-0.002 0-0.004 0-0.006 0-0.001 0-0.003 0-0.005 0-22.311-18.087-40.398-40.398-40.398-22.311 0-40.398 18.087-40.398 40.398s0 0.004 0 0.006z" fill="" p-id="24599"></path><path d="M67.605 754.397c0 0.002 0 0.004 0 0.005 0 22.311 18.087 40.398 40.398 40.398 22.311 0 40.398-18.087 40.398-40.398 0-0.002 0-0.004 0-0.006 0-0.001 0-0.003 0-0.005 0-22.311-18.087-40.398-40.398-40.398-22.311 0-40.398 18.087-40.398 40.398s0 0.004 0 0.006z" fill="" p-id="24600"></path><path d="M67.605 915.995c0 0.002 0 0.004 0 0.005 0 22.311 18.087 40.398 40.398 40.398 22.311 0 40.398-18.087 40.398-40.398 0-0.002 0-0.004 0-0.006 0-0.001 0-0.003 0-0.005 0-22.311-18.087-40.398-40.398-40.398-22.311 0-40.398 18.087-40.398 40.398s0 0.004 0 0.006z" fill="" p-id="24601"></path></svg>