<?xml version="1.0" standalone="no"?>
<!DOCTYPE svg PUBLIC "-//W3C//DTD SVG 20010904//EN"
 "http://www.w3.org/TR/2001/REC-SVG-20010904/DTD/svg10.dtd">
<svg version="1.0" xmlns="http://www.w3.org/2000/svg" width="400.000000pt" height="400.000000pt" viewBox="0 0 400.000000 400.000000" preserveAspectRatio="xMidYMid meet"><g transform="translate(0.000000,400.000000) scale(0.100000,-0.100000)"
fill="#000000" stroke="none">
<path d="M1801 3929 c-342 -36 -713 -189 -986 -407 -709 -566 -934 -1533 -545
-2349 191 -401 511 -722 912 -913 883 -420 1927 -122 2463 703 70 107 163 301
203 422 253 762 20 1590 -593 2103 -402 337 -926 496 -1454 441z m434 -454
c241 -37 478 -141 682 -298 90 -69 253 -244 315 -338 116 -176 197 -372 234
-574 26 -135 26 -402 0 -530 -122 -618 -584 -1079 -1201 -1201 -125 -25 -405
-25 -530 -1 -148 29 -279 74 -413 143 -158 80 -268 162 -397 295 -247 255
-388 569 -414 923 -32 437 122 849 434 1161 345 345 804 494 1290 420z"/>
</g>
</svg>
